<svg xmlns="http://www.w3.org/2000/svg" viewBox="0 0 640 400" width="640" height="400">
  <defs>
    <!-- Soft sky gradient -->
    <linearGradient id="cloudGradient" x1="0" y1="0" x2="0" y2="1">
      <stop offset="0%" stop-color="#e3f2ff" />
      <stop offset="100%" stop-color="#a8d4ff" />
    </linearGradient>

    <!-- Soft, layered shadow -->
    <filter id="cloudShadow" x="-20%" y="-20%" width="140%" height="140%">
      <feDropShadow dx="0" dy="18" stdDeviation="22" flood-color="rgba(0,0,0,0.18)" />
      <feDropShadow dx="0" dy="6" stdDeviation="10" flood-color="rgba(0,0,0,0.06)" />
    </filter>
  </defs>

  <!-- Cloud shape, shifted ~40px left -->
  <path
    d="M520 280
       c60 0 110-50 110-110
       0-55-45-100-100-100
       -15-50-70-90-145-90
       -70 0-125 35-145 90
       -65 0-120 45-120 105
       0 12 2 25 6 36
       -55 10-90 45-90 85
       0 55 50 95 120 95
       h364
       c75 0 135-40 135-85
       0-50-55-80-135-80z"
    fill="url(#cloudGradient)"
    filter="url(#cloudShadow)"
    transform="translate(-40,0)"
  />

  <style>
    @media (prefers-color-scheme: dark) {
      path {
        fill: #6cb8ff;
      }
    }
  </style>
</svg>
