<svg version="1.1" id="Layer_1" xmlns="http://www.w3.org/2000/svg" xmlns:xlink="http://www.w3.org/1999/xlink" x="0px" y="0px"
	 width="100%" viewBox="0 0 448 320" enable-background="new 0 0 448 320" xml:space="preserve">
<path fill="#000000" opacity="1.000000" stroke="none" 
	d="
M331.363464,127.359421 
	C325.442780,132.992935 318.463928,135.662354 310.905762,136.519608 
	C306.152557,137.058731 303.090881,139.423935 300.197205,142.896332 
	C295.055817,149.065964 291.242065,156.161774 286.251282,162.401337 
	C279.797760,170.469650 269.541748,170.672028 263.693420,163.101974 
	C262.222076,161.197464 261.193756,159.169617 261.729034,156.554626 
	C266.408478,153.568451 269.691315,157.695282 272.910248,159.466736 
	C276.894775,161.659531 278.723572,160.423462 280.390564,157.213165 
	C284.281647,149.719757 289.268616,142.723389 290.523621,134.031113 
	C290.845947,131.798508 292.094513,129.699615 293.441376,126.164421 
	C290.210846,129.941757 288.608154,133.088898 288.519684,136.642654 
	C288.434662,140.060120 286.832794,141.191727 283.795624,141.796677 
	C275.718079,143.405609 267.595001,143.564758 259.418457,143.164581 
	C255.475601,142.971619 253.514511,141.551056 255.002304,137.236176 
	C256.247894,133.623718 255.305847,130.165878 253.859329,126.551910 
	C252.448105,127.947380 253.163208,129.319107 253.095581,130.539505 
	C252.619400,139.133286 249.065063,145.929733 242.631866,151.832718 
	C229.217224,164.141785 212.562683,170.768631 196.862900,179.103226 
	C186.514160,184.597076 177.318756,191.776337 167.989090,198.775177 
	C165.176453,200.885162 164.457169,203.105820 165.436417,206.475464 
	C167.766342,214.492859 171.013626,222.149597 174.024811,229.907486 
	C176.259598,235.665085 178.347412,241.536865 176.144409,247.845093 
	C174.611572,252.234238 172.142090,255.905823 167.757660,257.901825 
	C166.528275,258.461487 165.111496,258.607971 164.000656,257.565857 
	C162.909317,256.542053 163.519104,255.413300 164.101440,254.386642 
	C168.805023,246.094254 167.740097,237.995728 164.091125,229.541336 
	C160.784241,221.879517 157.600342,214.220490 153.054291,207.181442 
	C151.799500,205.238556 150.903488,203.045105 149.992813,200.902878 
	C148.205307,196.698120 148.893250,193.386368 152.972198,190.591003 
	C161.077789,185.036102 168.961624,179.155304 176.890244,173.345261 
	C183.245575,168.688080 189.113770,163.537415 193.007950,156.510178 
	C195.952179,151.197128 195.215149,147.894485 189.956604,144.850708 
	C181.191711,139.777344 174.954971,132.700333 172.329575,122.843719 
	C171.361252,119.208298 169.431076,119.196556 166.404282,119.827965 
	C156.896484,121.811348 150.500107,128.604538 143.451385,134.363556 
	C129.778214,145.534958 116.221016,156.848190 102.572624,168.050079 
	C85.542137,182.027786 65.841370,190.754456 44.981167,197.178604 
	C40.684387,198.501846 36.423431,199.946136 32.103664,201.187408 
	C30.614719,201.615234 28.614120,202.611496 27.722275,200.451645 
	C26.877676,198.406204 28.727295,197.540390 30.172123,196.719437 
	C38.138260,192.193054 46.204044,187.834976 54.074177,183.148026 
	C77.340683,169.292007 97.354736,151.450684 115.329720,131.408447 
	C135.137131,109.323036 157.455444,90.529060 184.139023,77.483673 
	C204.522751,67.518242 226.176056,65.493546 248.427155,70.184387 
	C258.282654,72.262062 267.513580,75.755264 276.339844,80.701866 
	C287.711578,87.075050 299.945038,91.497452 312.514191,94.969208 
	C317.666382,96.392311 322.110321,95.033463 325.873260,91.524628 
	C334.691040,83.302269 341.876923,74.103508 342.973755,61.457039 
	C343.059204,60.472004 343.494354,59.520370 343.614166,58.534645 
	C343.952393,55.751881 345.455627,53.809929 348.074921,53.091396 
	C350.691315,52.373642 351.855286,54.591965 353.187622,56.270935 
	C353.687958,56.901371 354.209229,57.515144 354.593109,57.981258 
	C357.106323,58.148659 358.569519,55.614155 361.453400,56.405602 
	C363.026459,61.207691 361.324036,65.706337 359.034454,69.882111 
	C357.555328,72.579742 357.645844,73.866966 360.205292,75.961098 
	C368.212402,82.512535 373.598633,91.610817 381.429932,98.440102 
	C383.953552,100.640831 381.598358,106.484505 378.028015,107.844276 
	C374.306824,109.261505 370.396851,109.701340 366.978577,107.366005 
	C361.761810,103.801941 355.455109,106.553276 350.054718,104.033577 
	C348.558105,103.335297 347.604187,105.446022 346.746765,106.592545 
	C341.659851,113.394531 336.637634,120.244888 331.363464,127.359421 
z"/>
</svg>