<svg version="1.1" id="Layer_1" xmlns="http://www.w3.org/2000/svg" xmlns:xlink="http://www.w3.org/1999/xlink" x="0px" y="0px"
	 width="100%" viewBox="0 0 200 200" enable-background="new 0 0 200 200" xml:space="preserve">
<path fill="#FFFFFF" opacity="1.000000" stroke="none" 
	d="
M1.000000,63.000000 
	C1.000000,42.359646 1.000000,21.719288 1.000000,1.039466 
	C67.555458,1.039466 134.110947,1.039466 201.000000,1.039466 
	C201.000000,28.019979 201.000000,55.041332 200.561249,82.571129 
	C192.095856,83.003525 192.099854,83.004906 189.590561,90.253792 
	C189.492004,90.538498 189.174561,90.747452 188.602600,91.002869 
	C186.969833,91.542473 185.693588,92.070915 184.556900,92.541573 
	C179.491516,89.163811 183.956528,85.500351 184.309875,82.131531 
	C185.586075,82.346596 186.549347,82.425911 187.512604,82.505226 
	C187.430405,81.980392 187.348190,81.455551 187.265991,80.930717 
	C186.177917,81.288078 185.089844,81.645447 183.594727,81.954071 
	C178.464111,81.942749 173.740540,81.980164 168.783920,81.743973 
	C166.699127,81.984116 164.847382,82.497871 162.524048,83.010750 
	C160.488235,83.122093 158.924011,83.234314 157.234100,83.299973 
	C157.108444,83.253418 157.007553,83.004868 156.953552,82.664352 
	C155.269821,82.484718 153.640060,82.645607 151.666641,82.885345 
	C150.619247,83.017044 149.915543,83.069893 148.763672,83.087677 
	C147.419373,83.095474 146.523254,83.138329 145.331757,82.952667 
	C143.087463,82.518272 141.138565,82.312401 138.944412,82.154297 
	C138.388092,82.358406 138.161682,82.595573 137.812363,82.984482 
	C137.604813,83.055374 137.168152,83.096970 136.772186,83.026825 
	C128.046890,79.145897 119.490746,81.333359 110.658188,82.046608 
	C108.877312,83.071327 107.430489,84.046204 105.991776,85.012299 
	C105.999878,85.003502 105.980568,85.011589 105.987564,84.635612 
	C105.998230,83.507858 106.001892,82.756088 106.143951,81.948570 
	C106.186783,81.926704 106.091217,81.960571 105.694809,82.017601 
	C104.925110,82.370781 104.456245,82.700798 103.588432,83.024643 
	C102.125511,83.012466 101.061531,83.006470 99.968185,82.707062 
	C99.292168,82.278107 98.645508,82.142548 97.572884,81.998688 
	C91.437065,81.998009 85.727226,82.005623 79.579468,82.009422 
	C75.760979,81.670303 72.380394,81.334999 68.713463,80.706535 
	C65.990692,80.273994 63.521725,80.325363 61.131073,79.917610 
	C59.868797,79.702316 57.802540,78.800774 57.707287,78.014320 
	C57.060085,72.670563 52.996574,71.952080 48.999992,70.750381 
	C48.999523,70.500763 48.999084,70.001526 48.994720,69.628716 
	C47.804901,67.951981 46.678379,65.586105 45.424419,65.516518 
	C37.298519,65.065552 29.144865,65.114708 20.666870,65.000038 
	C19.888855,65.000053 19.444275,65.000031 18.551216,65.000000 
	C12.401827,64.333328 6.700913,63.666664 1.000000,63.000000 
z"/>
<path fill="#FFFFFF" opacity="1.000000" stroke="none" 
	d="
M201.000000,92.000000 
	C201.000000,128.292007 201.000000,164.584000 201.000000,200.938004 
	C134.450546,200.938004 67.901016,200.938004 1.000000,200.938004 
	C1.000000,175.980209 1.000000,150.958755 1.363494,125.431152 
	C2.813212,125.311935 4.811800,125.641159 4.840515,126.095009 
	C5.059217,129.551773 7.176600,129.141220 9.438301,128.708252 
	C13.856421,127.862450 17.535936,128.728592 19.832363,132.995773 
	C18.864626,134.282043 18.039419,135.378891 17.196943,136.498672 
	C19.373428,138.983063 21.069315,140.241867 23.108673,136.690750 
	C23.594061,135.845551 25.486128,135.350616 26.664383,135.454224 
	C29.278030,135.684036 31.846594,136.768875 34.438808,136.787903 
	C36.381775,136.802155 39.691223,136.137039 40.053680,135.017349 
	C41.987637,129.043030 46.320004,129.078262 51.373322,128.749207 
	C54.245857,128.562180 58.762623,129.856949 60.154346,124.640045 
	C60.540043,122.187637 60.768494,120.094276 61.194031,117.726433 
	C63.260750,115.634430 65.130379,113.816910 67.146347,112.330147 
	C68.199326,115.145149 68.951347,117.702057 70.071625,120.085907 
	C70.724823,121.475838 71.759331,123.374954 72.978874,123.697746 
	C80.456001,125.676857 88.024719,127.319199 95.592064,128.937515 
	C96.642250,129.162109 98.035179,128.944382 98.957085,128.401215 
	C102.375603,126.387161 105.663399,124.151230 109.386215,122.004852 
	C112.271950,122.472923 114.887413,123.621407 117.242645,123.224724 
	C120.260063,122.716537 121.697670,123.802879 123.457542,125.870613 
	C124.622925,127.239868 126.632019,128.267456 128.428314,128.629242 
	C130.739853,129.094818 133.248611,128.490128 135.615112,128.793503 
	C140.142014,129.373825 143.166229,127.378296 144.445679,123.131371 
	C144.732010,122.180984 146.517181,121.267159 147.724548,121.086494 
	C151.454895,120.528313 155.239426,120.332344 159.373718,120.159386 
	C163.834335,119.875847 167.924179,119.428635 172.056732,119.306580 
	C174.156311,119.368256 176.213181,119.104774 178.270035,118.841293 
	C178.282761,119.091232 178.295486,119.341179 178.308212,119.591125 
	C179.928604,119.442909 181.548981,119.294693 183.433807,119.124466 
	C184.430405,119.120850 185.162537,119.139244 186.046021,119.563354 
	C188.317245,120.041695 190.437103,120.114319 192.556976,120.186935 
	C192.042313,118.796974 191.527664,117.407005 190.988159,115.822388 
	C190.905289,115.351593 190.749527,115.151581 190.495575,114.746147 
	C190.434814,114.096008 190.374512,113.727440 190.519958,113.296814 
	C190.725677,113.234756 191.109665,113.041008 191.472961,112.964157 
	C192.489273,110.444939 193.142288,108.002579 193.790192,105.398384 
	C193.785065,105.236542 194.005295,104.999107 194.410934,104.979813 
	C199.142242,103.127670 196.207474,99.546181 196.764465,96.867691 
	C196.749191,96.926033 196.753510,96.802597 197.113556,96.810326 
	C198.649078,95.212036 199.824539,93.606018 201.000000,92.000000 
z"/>
<path fill="#DDF1F8" opacity="1.000000" stroke="none" 
	d="
M1.000000,104.000000 
	C1.000000,102.285622 1.000000,100.571251 1.390948,98.567352 
	C3.158434,97.674644 5.359815,97.405937 5.764274,96.408554 
	C7.265585,92.706337 8.175224,88.764198 9.693085,84.981400 
	C15.058092,82.348160 20.037094,79.645699 25.343029,76.973511 
	C26.101040,76.941338 26.532116,76.878883 27.409191,76.868324 
	C30.528833,77.053619 33.202477,77.187012 36.146927,77.529686 
	C38.560059,78.601013 40.702381,79.463058 43.041454,80.587616 
	C48.486923,84.626968 52.052608,89.482826 53.585003,95.895401 
	C54.575283,100.039398 55.829556,100.184837 59.260460,97.000137 
	C60.064877,97.013344 60.524330,97.029625 61.095703,97.330910 
	C60.118759,99.778793 59.029884,101.941681 57.546322,104.019302 
	C55.781689,104.747406 53.842327,105.231133 53.145771,106.434341 
	C50.811417,110.466629 48.920860,114.755836 46.636860,119.018089 
	C46.122143,119.268616 45.967754,119.528885 45.662476,119.948608 
	C44.902290,120.343796 44.429790,120.660675 43.608086,121.055145 
	C38.185055,124.820435 32.035614,126.565445 26.344452,125.419479 
	C17.174120,123.572952 10.130712,118.109497 6.674890,108.702690 
	C5.893115,106.574684 5.027806,102.936386 1.000000,104.000000 
M15.357034,86.984207 
	C15.186792,87.304939 15.016550,87.625664 14.432329,88.149368 
	C14.189330,88.358414 14.037129,88.620247 13.471048,89.077988 
	C13.339648,89.383469 13.208248,89.688957 12.843522,90.201546 
	C12.843522,90.201546 12.862957,90.512924 12.380080,90.875839 
	C12.258288,91.249512 12.136497,91.623177 11.789476,92.171318 
	C11.789476,92.171318 11.842700,92.451202 11.375708,92.831764 
	C11.288118,93.214554 11.200529,93.597343 10.692852,94.707123 
	C11.073643,99.819817 11.095621,104.995789 11.981412,110.019432 
	C12.448305,112.667351 14.753951,113.249969 17.501459,111.379501 
	C19.669960,112.570312 21.838463,113.761124 23.147886,114.906242 
	C21.476841,114.906242 19.805794,114.906242 18.134748,114.906242 
	C17.922625,115.583824 17.710499,116.261398 17.498375,116.938980 
	C19.903473,118.005371 22.308569,119.071762 25.377842,120.671684 
	C34.011791,122.179008 41.192387,119.667435 46.335205,112.507355 
	C50.734196,106.382851 51.366951,99.597656 48.146702,92.751297 
	C47.476692,91.326836 45.509178,90.512672 44.139622,89.417252 
	C44.049908,91.142998 43.424820,93.060242 43.961899,94.561798 
	C46.467545,101.567093 45.330688,107.197197 39.996490,111.275543 
	C40.338577,110.033325 40.344868,108.524826 41.081692,107.595619 
	C44.051338,103.850639 44.496220,100.283386 42.545113,95.666466 
	C40.740372,91.395874 39.233841,88.831581 33.814911,88.466286 
	C29.113960,88.149384 24.908060,87.134705 21.037302,90.646820 
	C20.569401,91.071381 19.449896,90.777794 18.839817,90.290901 
	C19.180458,89.845856 19.521101,89.400810 20.484013,88.696617 
	C21.007488,88.277565 21.530964,87.858505 22.730654,87.230591 
	C27.398035,87.208282 32.065411,87.183731 36.732803,87.164818 
	C38.489063,87.157707 40.245373,87.163666 42.683620,87.163666 
	C36.864956,79.083847 24.960604,78.932518 16.921738,85.910461 
	C16.921738,85.910461 16.901115,85.810425 16.380342,85.986092 
	C16.185648,86.286499 15.990953,86.586906 15.906376,86.908012 
	C15.906376,86.908012 15.885756,86.797882 15.357034,86.984207 
z"/>
<path fill="#F8FCFB" opacity="1.000000" stroke="none" 
	d="
M57.941010,104.104568 
	C59.029884,101.941681 60.118759,99.778793 61.160881,96.967377 
	C62.530891,94.154610 63.947655,91.990364 65.237213,90.020439 
	C66.693115,89.838028 68.719688,90.189369 69.604393,89.344711 
	C71.336983,87.690559 71.438095,85.638954 68.891434,84.050079 
	C68.460800,83.781403 68.940636,82.053436 68.999809,80.999695 
	C72.380394,81.334999 75.760979,81.670303 79.429291,82.311066 
	C77.344856,86.351212 72.160843,88.442619 72.993454,94.483688 
	C72.980347,99.260559 72.998291,103.622078 72.998215,108.321487 
	C72.668022,109.442085 72.355850,110.224785 71.729584,110.876663 
	C69.943657,111.163681 68.471832,111.581535 67.000000,111.999390 
	C65.130379,113.816910 63.260750,115.634430 60.808727,117.732193 
	C57.517635,118.483521 54.575180,119.183693 55.256367,122.640656 
	C55.464542,123.697159 58.342041,124.227684 59.997101,124.999084 
	C58.762623,129.856949 54.245857,128.562180 51.373322,128.749207 
	C46.320004,129.078262 41.987637,129.043030 40.053680,135.017349 
	C39.691223,136.137039 36.381775,136.802155 34.438808,136.787903 
	C31.846594,136.768875 29.278030,135.684036 26.664383,135.454224 
	C25.486128,135.350616 23.594061,135.845551 23.108673,136.690750 
	C21.069315,140.241867 19.373428,138.983063 17.196943,136.498672 
	C18.039419,135.378891 18.864626,134.282043 19.832363,132.995773 
	C17.535936,128.728592 13.856421,127.862450 9.438301,128.708252 
	C7.176600,129.141220 5.059217,129.551773 4.840515,126.095009 
	C4.811800,125.641159 2.813212,125.311935 1.363494,124.962494 
	C1.000000,120.643097 1.000000,116.286201 1.367628,111.408623 
	C4.828992,115.105011 7.461142,119.781212 11.108284,123.447815 
	C19.905821,132.292252 35.362164,132.229477 45.377579,125.093903 
	C46.492588,124.376213 47.280537,123.707069 48.039024,123.020248 
	C48.009563,123.002563 48.026833,123.069084 48.286339,122.997971 
	C48.742207,122.636040 48.938568,122.345238 49.092766,122.045578 
	C49.050598,122.036728 49.077309,122.118652 49.390003,121.980286 
	C54.810944,117.026596 57.943790,111.293770 57.941010,104.104568 
M3.431224,120.703270 
	C3.704316,120.989449 3.977407,121.275620 4.250502,121.561790 
	C4.368917,121.448494 4.596558,121.242966 4.590000,121.235184 
	C4.335102,120.933304 4.058832,120.649467 3.431224,120.703270 
z"/>
<path fill="#FFFFFF" opacity="1.000000" stroke="none" 
	d="
M21.000305,65.000000 
	C29.144865,65.114708 37.298519,65.065552 45.424419,65.516518 
	C46.678379,65.586105 47.804901,67.951981 48.574139,69.638145 
	C43.879837,70.999031 39.611237,71.788872 35.477631,69.067146 
	C36.831200,68.807068 38.184769,68.546989 39.538342,68.286919 
	C33.988651,66.119576 28.823334,67.230461 23.675056,69.281868 
	C19.215414,71.058861 14.632364,72.523613 10.141964,74.226830 
	C7.060862,75.395493 4.045014,76.736191 0.999999,78.000000 
	C1.000000,74.969406 1.000000,71.938812 1.298977,68.415649 
	C1.917483,67.515495 2.237011,67.107903 2.556538,66.700310 
	C2.037691,66.466873 1.518845,66.233437 1.000000,66.000000 
	C1.000000,65.250000 1.000000,64.500000 1.000000,63.375000 
	C6.700913,63.666664 12.401827,64.333328 18.556606,65.345993 
	C19.373974,66.297966 19.737473,66.903938 20.100971,67.509918 
	C20.400749,66.673279 20.700529,65.836639 21.000305,65.000000 
z"/>
<path fill="#F8FCFB" opacity="1.000000" stroke="none" 
	d="
M0.999999,78.463181 
	C4.045014,76.736191 7.060862,75.395493 10.141964,74.226830 
	C14.632364,72.523613 19.215414,71.058861 23.675056,69.281868 
	C28.823334,67.230461 33.988651,66.119576 39.538342,68.286919 
	C38.184769,68.546989 36.831200,68.807068 35.477631,69.067146 
	C39.611237,71.788872 43.879837,70.999031 48.578503,70.010956 
	C48.999084,70.001526 48.999523,70.500763 49.009140,71.124847 
	C50.211430,72.845947 51.671497,73.765236 52.542717,75.075928 
	C54.533852,78.071480 55.841267,81.603020 58.166039,84.272797 
	C60.588486,87.054741 60.661354,89.342216 58.374722,91.924103 
	C55.948376,85.288681 51.473129,80.769218 45.726875,76.849060 
	C40.167221,73.140686 34.401691,71.474373 27.628372,72.104172 
	C20.583456,72.774673 14.689031,75.099106 9.674559,80.159195 
	C6.563342,83.857018 3.781671,87.428505 1.000000,91.000000 
	C1.000000,86.975456 1.000000,82.950912 0.999999,78.463181 
z"/>
<path fill="#194C7E" opacity="1.000000" stroke="none" 
	d="
M45.050522,125.142456 
	C35.362164,132.229477 19.905821,132.292252 11.108284,123.447815 
	C7.461142,119.781212 4.828992,115.105011 1.367628,110.943970 
	C1.000000,108.958336 1.000000,106.916664 1.000000,104.437500 
	C5.027806,102.936386 5.893115,106.574684 6.674890,108.702690 
	C10.130712,118.109497 17.174120,123.572952 26.344452,125.419479 
	C32.035614,126.565445 38.185055,124.820435 43.916878,121.031082 
	C45.033310,120.576385 45.491737,120.223343 45.950165,119.870300 
	C45.967754,119.528885 46.122143,119.268616 46.999702,119.085541 
	C48.083153,120.093941 48.580231,121.106300 49.077309,122.118652 
	C49.077309,122.118652 49.050598,122.036728 48.845734,122.138000 
	C48.436195,122.515869 48.231518,122.792480 48.026836,123.069092 
	C48.026833,123.069084 48.009563,123.002563 47.702713,123.037491 
	C46.614082,123.762428 45.832302,124.452446 45.050522,125.142456 
z"/>
<path fill="#205281" opacity="1.000000" stroke="none" 
	d="
M194.005295,104.999107 
	C194.005295,104.999107 193.785065,105.236542 193.553848,105.637543 
	C192.684647,107.413498 192.046661,108.788467 191.092194,109.980911 
	C191.187775,105.536072 191.599869,101.273758 192.298538,96.975677 
	C192.886841,96.539665 193.188583,96.139420 193.490326,95.739182 
	C193.232727,95.647461 192.777969,95.434303 192.748062,95.482834 
	C192.454407,95.959572 192.231430,96.479843 191.619873,97.033157 
	C189.377075,100.661110 187.502792,104.243660 185.628510,107.826202 
	C185.233200,107.896973 184.837875,107.967743 184.442566,108.038513 
	C183.976608,105.315598 183.510651,102.592682 183.384918,100.031708 
	C184.627518,99.963943 186.139130,99.967300 186.330948,99.465820 
	C187.385345,96.709335 188.116806,93.829315 188.959106,90.991699 
	C189.174561,90.747452 189.492004,90.538498 189.590561,90.253792 
	C192.099854,83.004906 192.095856,83.003525 200.561249,83.039787 
	C201.000000,83.444443 201.000000,83.888893 200.665222,84.819855 
	C199.138138,89.138443 197.945831,92.970520 196.753510,96.802597 
	C196.753510,96.802597 196.749191,96.926033 196.495728,97.105774 
	C195.496613,99.856705 194.750946,102.427910 194.005295,104.999107 
z"/>
<path fill="#205587" opacity="1.000000" stroke="none" 
	d="
M1.000000,91.437500 
	C3.781671,87.428505 6.563342,83.857018 9.836529,80.403976 
	C9.987722,81.985680 9.647401,83.448921 9.307079,84.912163 
	C8.175224,88.764198 7.265585,92.706337 5.764274,96.408554 
	C5.359815,97.405937 3.158434,97.674644 1.390948,98.138916 
	C1.000000,95.958336 1.000000,93.916664 1.000000,91.437500 
z"/>
<path fill="#D5EEF8" opacity="1.000000" stroke="none" 
	d="
M197.113571,96.810326 
	C197.945831,92.970520 199.138138,89.138443 200.665222,85.153183 
	C201.000000,87.041664 201.000000,89.083336 201.000000,91.562500 
	C199.824539,93.606018 198.649078,95.212036 197.113571,96.810326 
z"/>
<path fill="#F8FCFB" opacity="1.000000" stroke="none" 
	d="
M1.000000,66.333328 
	C1.518845,66.233437 2.037691,66.466873 2.556538,66.700310 
	C2.237011,67.107903 1.917483,67.515495 1.298977,67.961540 
	C1.000000,67.555557 1.000000,67.111107 1.000000,66.333328 
z"/>
<path fill="#205587" opacity="1.000000" stroke="none" 
	d="
M139.189651,82.106522 
	C141.138565,82.312401 143.087463,82.518272 145.347626,83.376472 
	C145.764114,86.014778 145.869354,88.000763 145.877930,90.381897 
	C145.850891,91.851929 145.920502,92.926826 145.888031,94.446304 
	C145.847076,97.924980 145.908188,100.959061 145.870117,104.449646 
	C145.875854,109.269356 145.980804,113.632568 145.901917,118.329010 
	C142.865143,118.741394 140.012222,118.820534 137.112793,118.572845 
	C136.971909,117.379837 136.877518,116.513649 136.763153,115.464104 
	C135.614380,116.120026 134.809158,116.579781 133.791779,116.777252 
	C130.386719,116.695702 127.193832,116.876434 124.188263,116.771835 
	C124.924446,115.334160 125.473312,114.181808 126.433121,113.021240 
	C128.562256,112.316849 130.280472,111.620659 132.204895,110.706680 
	C133.481705,109.613510 134.552292,108.738129 135.938324,107.765762 
	C136.477631,107.079102 136.701477,106.489426 136.958038,105.940361 
	C136.990768,105.980972 136.897995,105.933304 137.280731,105.887802 
	C138.112091,103.915306 138.560730,101.988327 139.298187,100.263275 
	C141.834991,103.043625 142.773727,102.162888 143.019150,99.202682 
	C143.290619,95.928101 143.938995,92.644241 143.779419,89.396049 
	C143.722214,88.231613 141.966446,86.744888 140.653091,86.182442 
	C139.685944,85.768257 138.177887,86.617188 136.912384,86.521095 
	C136.998657,85.124931 137.083405,84.110954 137.168152,83.096970 
	C137.168152,83.096970 137.604813,83.055374 138.088104,83.021988 
	C138.777466,82.694572 138.983566,82.400543 139.189651,82.106522 
z"/>
<path fill="#EBF8FB" opacity="1.000000" stroke="none" 
	d="
M188.602600,91.002869 
	C188.116806,93.829315 187.385345,96.709335 186.330948,99.465820 
	C186.139130,99.967300 184.627518,99.963943 183.348358,99.810669 
	C182.971542,99.427689 182.825195,99.003944 182.893433,98.632736 
	C182.019318,96.154266 181.076950,94.047012 180.088989,91.614792 
	C180.023941,90.856911 180.004486,90.423988 180.060150,89.675148 
	C179.809143,88.847084 179.483047,88.334938 179.115356,87.891998 
	C179.073792,87.961197 179.199615,87.860023 179.207718,87.554359 
	C178.115082,82.563454 174.396347,84.312523 171.180893,83.800163 
	C170.038666,88.353279 168.947617,92.702400 167.824738,97.375031 
	C166.709335,99.926926 165.625748,102.155304 163.974335,105.551422 
	C162.330368,100.403511 161.150192,96.707870 160.030151,92.625534 
	C159.180145,89.274734 158.269958,86.310638 157.359772,83.346535 
	C158.924011,83.234314 160.488235,83.122093 162.656357,83.320877 
	C162.835632,85.259674 162.280182,86.867538 162.028381,88.521637 
	C161.831924,89.812202 161.656845,91.320129 162.153412,92.425446 
	C162.474899,93.141075 164.442215,93.919838 164.932709,93.585533 
	C165.877304,92.941727 166.530060,91.599289 166.888641,90.420288 
	C167.728455,87.659042 168.323074,84.823212 169.016968,82.017586 
	C173.740540,81.980164 178.464111,81.942749 183.593842,81.952652 
	C184.000000,81.999962 183.996933,81.995789 183.996933,81.995789 
	C183.956528,85.500351 179.491516,89.163811 184.556900,92.541573 
	C185.693588,92.070915 186.969833,91.542473 188.602600,91.002869 
z"/>
<path fill="#FFFFFF" opacity="1.000000" stroke="none" 
	d="
M58.685589,92.096069 
	C60.661354,89.342216 60.588486,87.054741 58.166039,84.272797 
	C55.841267,81.603020 54.533852,78.071480 52.542717,75.075928 
	C51.671497,73.765236 50.211430,72.845947 49.009605,71.374466 
	C52.996574,71.952080 57.060085,72.670563 57.707287,78.014320 
	C57.802540,78.800774 59.868797,79.702316 61.131073,79.917610 
	C63.521725,80.325363 65.990692,80.273994 68.713463,80.706535 
	C68.940636,82.053436 68.460800,83.781403 68.891434,84.050079 
	C71.438095,85.638954 71.336983,87.690559 69.604393,89.344711 
	C68.719688,90.189369 66.693115,89.838028 65.237213,90.020439 
	C63.947655,91.990364 62.530891,94.154610 61.048954,96.682373 
	C60.524330,97.029625 60.064877,97.013344 59.108448,96.706139 
	C58.636173,94.975502 58.660881,93.535789 58.685589,92.096069 
z"/>
<path fill="#E1F4F8" opacity="1.000000" stroke="none" 
	d="
M73.024498,94.068329 
	C72.160843,88.442619 77.344856,86.351212 79.867195,82.314880 
	C85.727226,82.005623 91.437065,81.998009 97.741547,82.240845 
	C98.889977,82.661011 99.443764,82.830742 99.997559,83.000465 
	C101.061531,83.006470 102.125511,83.012466 103.710281,83.287170 
	C104.814247,84.041115 105.397408,84.526352 105.980568,85.011589 
	C105.980568,85.011589 105.999878,85.003502 106.033073,85.369431 
	C107.466675,87.350304 108.867073,88.965263 110.217957,90.900681 
	C109.436028,92.812134 108.703613,94.403130 107.699776,95.792137 
	C106.479317,94.655090 105.530296,93.720024 104.756393,92.477386 
	C107.225197,87.776581 102.979820,87.101250 100.650558,84.904037 
	C92.881607,82.223885 85.544678,81.112480 78.646423,87.035011 
	C77.018593,89.178680 75.646584,91.112030 74.127869,93.243958 
	C73.981171,93.442543 73.833633,93.913773 73.866669,93.920967 
	C73.899712,93.928162 73.860748,93.872223 73.651047,93.918533 
	C73.441353,93.964851 73.024498,94.068329 73.024498,94.068329 
z"/>
<path fill="#FEFEF8" opacity="1.000000" stroke="none" 
	d="
M168.783920,81.743973 
	C168.323074,84.823212 167.728455,87.659042 166.888641,90.420288 
	C166.530060,91.599289 165.877304,92.941727 164.932709,93.585533 
	C164.442215,93.919838 162.474899,93.141075 162.153412,92.425446 
	C161.656845,91.320129 161.831924,89.812202 162.028381,88.521637 
	C162.280182,86.867538 162.835632,85.259674 163.127930,83.321762 
	C164.847382,82.497871 166.699127,81.984116 168.783920,81.743973 
z"/>
<path fill="#E1F4F8" opacity="1.000000" stroke="none" 
	d="
M136.772186,83.026825 
	C137.083405,84.110954 136.998657,85.124931 136.679214,86.562729 
	C136.444519,86.986534 135.973343,86.948196 135.843933,86.623184 
	C130.047104,81.312202 123.655815,81.051880 114.759888,85.316162 
	C113.259285,84.114052 112.125755,83.055405 110.992233,81.996765 
	C119.490746,81.333359 128.046890,79.145897 136.772186,83.026825 
z"/>
<path fill="#E8F9FD" opacity="1.000000" stroke="none" 
	d="
M145.974594,89.986748 
	C145.869354,88.000763 145.764114,86.014778 145.643005,83.604988 
	C146.523254,83.138329 147.419373,83.095474 148.773392,83.394867 
	C149.676025,84.862938 150.120773,85.988747 150.657745,87.502357 
	C151.440765,90.594254 152.131546,93.298363 152.509018,95.945145 
	C151.465759,94.923233 150.735809,93.958656 149.964005,92.637039 
	C148.606293,91.515587 147.290436,90.751167 145.974594,89.986748 
z"/>
<path fill="#3A6182" opacity="1.000000" stroke="none" 
	d="
M150.565521,87.114563 
	C150.120773,85.988747 149.676025,84.862938 149.221558,83.429932 
	C149.915543,83.069893 150.619247,83.017044 152.074081,82.980316 
	C154.219315,82.999237 155.613434,83.002052 157.007553,83.004868 
	C157.007553,83.004868 157.108444,83.253418 157.234100,83.299973 
	C158.269958,86.310638 159.180145,89.274734 159.678589,92.540695 
	C158.695572,91.568306 158.039200,90.324623 157.568588,89.014221 
	C156.004578,84.659386 154.407150,84.207649 150.565521,87.114563 
z"/>
<path fill="#F8FCFB" opacity="1.000000" stroke="none" 
	d="
M110.658188,82.046608 
	C112.125755,83.055405 113.259285,84.114052 114.595001,85.506454 
	C114.637077,85.890358 114.476967,85.940498 114.029648,86.075729 
	C113.504242,86.467850 113.266037,86.774872 112.904236,87.377159 
	C111.942917,88.641693 111.105194,89.610954 110.267471,90.580215 
	C108.867073,88.965263 107.466675,87.350304 106.024963,85.378220 
	C107.430489,84.046204 108.877312,83.071327 110.658188,82.046608 
z"/>
<path fill="#EBF8FB" opacity="1.000000" stroke="none" 
	d="
M156.953552,82.664352 
	C155.613434,83.002052 154.219315,82.999237 152.417755,82.901459 
	C153.640060,82.645607 155.269821,82.484718 156.953552,82.664352 
z"/>
<path fill="#EBF8FB" opacity="1.000000" stroke="none" 
	d="
M184.000885,82.001389 
	C185.089844,81.645447 186.177917,81.288078 187.265991,80.930717 
	C187.348190,81.455551 187.430405,81.980392 187.512604,82.505226 
	C186.549347,82.425911 185.586075,82.346596 184.309875,82.131531 
	C183.996933,81.995789 184.000000,81.999962 184.000885,82.001389 
z"/>
<path fill="#F8FCFB" opacity="1.000000" stroke="none" 
	d="
M20.666870,65.000038 
	C20.700529,65.836639 20.400749,66.673279 20.100971,67.509918 
	C19.737473,66.903938 19.373974,66.297966 19.005085,65.345993 
	C19.444275,65.000031 19.888855,65.000053 20.666870,65.000038 
z"/>
<path fill="#F8FCFB" opacity="1.000000" stroke="none" 
	d="
M105.987564,84.635612 
	C105.397408,84.526352 104.814247,84.041115 104.109230,83.293350 
	C104.456245,82.700798 104.925110,82.370781 105.696991,82.020386 
	C106.000000,82.000000 106.005554,82.004311 106.005554,82.004311 
	C106.001892,82.756088 105.998230,83.507858 105.987564,84.635612 
z"/>
<path fill="#F8FCFB" opacity="1.000000" stroke="none" 
	d="
M99.968185,82.707062 
	C99.443764,82.830742 98.889977,82.661011 98.167519,82.249138 
	C98.645508,82.142548 99.292168,82.278107 99.968185,82.707062 
z"/>
<path fill="#F8FCFB" opacity="1.000000" stroke="none" 
	d="
M105.997818,81.997223 
	C106.091217,81.960571 106.186783,81.926704 106.143951,81.948570 
	C106.005554,82.004311 106.000000,82.000000 105.997818,81.997223 
z"/>
<path fill="#E1F4F8" opacity="1.000000" stroke="none" 
	d="
M138.944412,82.154297 
	C138.983566,82.400543 138.777466,82.694572 138.295654,82.951088 
	C138.161682,82.595573 138.388092,82.358406 138.944412,82.154297 
z"/>
<path fill="#F8FCFB" opacity="1.000000" stroke="none" 
	d="
M150.005875,92.994072 
	C150.735809,93.958656 151.465759,94.923233 152.586243,96.169540 
	C152.976776,96.451256 153.029984,96.922737 153.019196,97.356712 
	C153.085663,99.581886 152.795807,101.486290 153.306931,103.143700 
	C155.053680,108.807884 157.082001,114.385231 159.002899,119.995712 
	C155.239426,120.332344 151.454895,120.528313 147.724548,121.086494 
	C146.517181,121.267159 144.732010,122.180984 144.445679,123.131371 
	C143.166229,127.378296 140.142014,129.373825 135.615112,128.793503 
	C133.248611,128.490128 130.739853,129.094818 128.428314,128.629242 
	C126.632019,128.267456 124.622925,127.239868 123.457542,125.870613 
	C121.697670,123.802879 120.260063,122.716537 117.242645,123.224724 
	C114.887413,123.621407 112.271950,122.472923 109.385712,121.754822 
	C108.998810,121.331879 108.998337,121.165176 108.998398,120.554253 
	C108.997551,117.738342 108.996178,115.366646 109.358170,112.988983 
	C110.205597,112.963455 110.689659,112.943901 111.388702,113.020042 
	C111.876793,113.315231 112.021461,113.583900 112.024597,114.287781 
	C112.722221,117.889549 112.902962,118.008148 115.398102,116.772812 
	C116.123940,117.207634 116.569206,117.561653 117.088287,118.314613 
	C118.970795,119.079521 120.779480,119.445488 122.818024,119.709396 
	C123.360367,119.711967 123.672867,119.816612 124.165421,120.185158 
	C125.235794,120.269539 126.126129,120.090019 127.288773,119.788071 
	C128.149033,119.669182 128.736969,119.672722 129.639099,119.725372 
	C130.300690,119.558090 130.648087,119.341682 131.184143,119.018845 
	C131.372833,118.912407 131.806122,118.914864 132.252182,118.950882 
	C134.185257,118.957825 135.672272,118.928749 137.159286,118.899673 
	C140.012222,118.820534 142.865143,118.741394 146.263123,118.285309 
	C152.235016,114.549477 152.320755,108.410347 147.001251,103.571106 
	C147.003204,101.429359 147.006363,99.715904 147.344910,97.949036 
	C147.984177,96.994606 148.212799,96.058273 148.614090,95.202942 
	C148.980911,94.421097 149.534546,93.726891 150.005875,92.994072 
z"/>
<path fill="#FEFEF8" opacity="1.000000" stroke="none" 
	d="
M108.997864,120.998474 
	C108.998337,121.165176 108.998810,121.331879 108.999802,121.748611 
	C105.663399,124.151230 102.375603,126.387161 98.957085,128.401215 
	C98.035179,128.944382 96.642250,129.162109 95.592064,128.937515 
	C88.024719,127.319199 80.456001,125.676857 72.978874,123.697746 
	C71.759331,123.374954 70.724823,121.475838 70.071625,120.085907 
	C68.951347,117.702057 68.199326,115.145149 67.146347,112.330147 
	C68.471832,111.581535 69.943657,111.163681 71.747902,111.195053 
	C72.720474,112.427185 73.360641,113.210083 73.999992,114.430038 
	C74.010803,116.154510 73.645462,117.618187 74.141502,118.679123 
	C74.624489,119.712128 75.913986,120.843697 76.986427,121.001686 
	C78.247406,121.187439 79.655975,120.371368 81.375076,119.987869 
	C82.498650,119.993156 83.247673,120.000336 84.067924,120.379654 
	C90.909180,124.452316 97.533638,124.316513 104.364609,120.037102 
	C106.152504,120.383514 107.575180,120.690994 108.997864,120.998474 
z"/>
<path fill="#F1FBFC" opacity="1.000000" stroke="none" 
	d="
M159.373703,120.159386 
	C157.082001,114.385231 155.053680,108.807884 153.306931,103.143700 
	C152.795807,101.486290 153.085663,99.581886 153.332672,97.540909 
	C155.115036,101.839897 155.990189,106.710175 158.253998,110.814529 
	C159.571640,113.203461 158.954559,119.274353 165.269531,116.876709 
	C165.713821,116.615822 165.893890,116.325691 166.040710,116.022217 
	C166.007431,116.008873 166.033249,116.075768 166.302002,115.986549 
	C166.776337,115.586487 166.981918,115.275642 167.488617,114.840378 
	C168.475510,113.470978 169.161316,112.225998 169.973495,110.684341 
	C170.722992,109.566971 171.346115,108.746284 171.977997,108.298073 
	C172.659912,110.123108 173.333054,111.575661 173.898682,113.281403 
	C173.527847,114.016228 173.264542,114.497856 173.000427,115.358055 
	C172.993454,116.493263 172.987274,117.249893 172.769058,118.113251 
	C172.291962,118.413834 172.110947,118.667656 172.014008,118.981430 
	C167.924179,119.428635 163.834335,119.875847 159.373703,120.159386 
z"/>
<path fill="#EBF5F7" opacity="1.000000" stroke="none" 
	d="
M173.001221,114.979485 
	C173.264542,114.497856 173.527847,114.016228 174.118591,113.167091 
	C174.722717,112.598053 174.914948,112.334816 175.350464,111.960938 
	C176.789230,111.273674 177.900238,110.635384 179.273468,110.186752 
	C179.938293,111.331429 180.340927,112.286446 180.767273,113.184113 
	C180.790970,113.126762 180.676239,113.174072 180.725311,113.509827 
	C181.098907,114.642319 181.423416,115.439064 181.758362,116.242325 
	C181.768784,116.248848 181.741806,116.267151 181.774307,116.561127 
	C182.261002,117.618896 182.715179,118.382690 183.169357,119.146484 
	C181.548981,119.294693 179.928604,119.442909 178.308212,119.591125 
	C178.295486,119.341179 178.282761,119.091232 178.270035,118.841293 
	C176.213181,119.104774 174.156311,119.368256 172.056732,119.306580 
	C172.110947,118.667656 172.291962,118.413834 173.107605,118.065536 
	C175.635880,116.441628 175.228714,115.506592 173.001221,114.979485 
z"/>
<path fill="#FCFBF3" opacity="1.000000" stroke="none" 
	d="
M60.154346,124.640045 
	C58.342041,124.227684 55.464542,123.697159 55.256367,122.640656 
	C54.575180,119.183693 57.517635,118.483521 60.611641,118.006668 
	C60.768494,120.094276 60.540043,122.187637 60.154346,124.640045 
z"/>
<path fill="#205281" opacity="1.000000" stroke="none" 
	d="
M183.433807,119.124474 
	C182.715179,118.382690 182.261002,117.618896 182.154556,116.514374 
	C186.562378,118.700424 187.535995,114.185410 190.027924,113.027435 
	C190.123291,113.137978 190.314224,113.358871 190.314224,113.358871 
	C190.374512,113.727440 190.434814,114.096008 190.341751,114.968163 
	C190.164993,115.650261 190.141617,115.828781 189.886017,116.202225 
	C189.435226,116.955299 189.216660,117.513443 188.752808,118.070244 
	C188.169540,118.206467 187.980988,118.456657 187.686157,118.873795 
	C186.918518,119.004623 186.406601,119.081131 185.894669,119.157639 
	C185.162537,119.139244 184.430405,119.120850 183.433807,119.124474 
z"/>
<path fill="#EBF5F7" opacity="1.000000" stroke="none" 
	d="
M186.046021,119.563354 
	C186.406601,119.081131 186.918518,119.004623 187.801727,119.065262 
	C188.448044,118.825470 188.723068,118.448540 188.998077,118.071594 
	C189.216660,117.513443 189.435226,116.955299 190.109589,116.204956 
	C190.565353,116.012756 191.013016,116.017036 191.013016,116.017036 
	C191.527664,117.407005 192.042313,118.796974 192.556976,120.186935 
	C190.437103,120.114319 188.317245,120.041695 186.046021,119.563354 
z"/>
<path fill="#D5EEF8" opacity="1.000000" stroke="none" 
	d="
M194.410934,104.979813 
	C194.750946,102.427910 195.496613,99.856705 196.511017,97.047424 
	C196.207474,99.546181 199.142242,103.127670 194.410934,104.979813 
z"/>
<path fill="#D5EEF8" opacity="1.000000" stroke="none" 
	d="
M191.408691,110.163437 
	C192.046661,108.788467 192.684647,107.413498 193.558960,105.799377 
	C193.142288,108.002579 192.489273,110.444939 191.446472,112.700394 
	C191.025375,112.339600 190.994064,112.165710 191.112305,111.710403 
	C191.310806,111.007133 191.359741,110.585281 191.408691,110.163437 
z"/>
<path fill="#205281" opacity="1.000000" stroke="none" 
	d="
M190.962753,111.991829 
	C190.994064,112.165710 191.025375,112.339600 191.083176,112.777252 
	C191.109665,113.041008 190.725677,113.234756 190.519958,113.296814 
	C190.314224,113.358871 190.123291,113.137978 190.158203,112.830566 
	C190.396210,112.268646 190.652756,112.091530 190.962753,111.991829 
z"/>
<path fill="#D5EEF8" opacity="1.000000" stroke="none" 
	d="
M190.988159,115.822388 
	C191.013016,116.017036 190.565353,116.012756 190.341797,116.010033 
	C190.141617,115.828781 190.164993,115.650261 190.342209,115.249733 
	C190.749527,115.151581 190.905289,115.351593 190.988159,115.822388 
z"/>
<path fill="#FAFDFC" opacity="1.000000" stroke="none" 
	d="
M24.006966,114.951935 
	C21.838463,113.761124 19.669960,112.570312 17.191183,110.799973 
	C14.048939,105.562256 14.124680,100.564865 15.392622,95.288345 
	C15.893731,94.412437 16.160696,93.703888 16.642853,92.790176 
	C16.906828,92.392914 16.955612,92.200806 17.229885,91.890579 
	C17.847712,91.453995 18.240051,91.135521 18.632393,90.817047 
	C19.449896,90.777794 20.569401,91.071381 21.037302,90.646820 
	C24.908060,87.134705 29.113960,88.149384 33.814911,88.466286 
	C39.233841,88.831581 40.740372,91.395874 42.545113,95.666466 
	C44.496220,100.283386 44.051338,103.850639 41.081692,107.595619 
	C40.344868,108.524826 40.338577,110.033325 39.903664,111.899361 
	C39.519478,112.672974 39.228115,112.822769 38.630997,112.991455 
	C37.921661,113.410141 37.518074,113.809921 37.080284,114.149734 
	C37.046085,114.089752 37.163158,114.162964 36.706078,114.105331 
	C32.364666,114.419411 28.480337,114.791107 24.426231,115.172981 
	C24.256456,115.183159 24.006968,114.951935 24.006966,114.951935 
z"/>
<path fill="#24527F" opacity="1.000000" stroke="none" 
	d="
M38.936749,112.972557 
	C39.228115,112.822769 39.519478,112.672974 39.912941,112.293472 
	C45.330688,107.197197 46.467545,101.567093 43.961899,94.561798 
	C43.424820,93.060242 44.049908,91.142998 44.139626,89.417252 
	C45.509178,90.512672 47.476692,91.326836 48.146702,92.751297 
	C51.366951,99.597656 50.734196,106.382851 46.335205,112.507355 
	C41.192387,119.667435 34.011791,122.179008 25.444880,120.363327 
	C26.879463,119.916061 28.247007,119.777161 29.795910,119.619835 
	C29.455124,118.278023 29.223637,117.366562 29.395372,116.371742 
	C32.253448,115.579903 34.708302,114.871429 37.163158,114.162964 
	C37.163158,114.162964 37.046085,114.089752 37.369198,114.107956 
	C38.107124,113.741631 38.521935,113.357094 38.936749,112.972557 
z"/>
<path fill="#2A5483" opacity="1.000000" stroke="none" 
	d="
M58.374722,91.924103 
	C58.660881,93.535789 58.636173,94.975502 58.763481,96.709221 
	C55.829556,100.184837 54.575283,100.039398 53.585003,95.895401 
	C52.052608,89.482826 48.486923,84.626968 43.223881,80.290459 
	C44.133770,78.849358 45.057980,77.967926 45.982193,77.086487 
	C51.473129,80.769218 55.948376,85.288681 58.374722,91.924103 
z"/>
<path fill="#22507F" opacity="1.000000" stroke="none" 
	d="
M9.693085,84.981400 
	C9.647401,83.448921 9.987722,81.985680 10.166075,80.277649 
	C14.689031,75.099106 20.583456,72.774673 27.902699,72.354683 
	C30.612875,73.093140 32.759735,73.264503 34.611191,74.094681 
	C35.363670,74.432091 35.473751,76.202194 35.876122,77.320412 
	C33.202477,77.187012 30.528833,77.053619 27.249519,76.672455 
	C26.101263,76.597534 25.558678,76.770378 25.016094,76.943222 
	C20.037094,79.645699 15.058092,82.348160 9.693085,84.981400 
z"/>
<path fill="#1B4D7E" opacity="1.000000" stroke="none" 
	d="
M15.158478,95.455704 
	C14.124680,100.564865 14.048939,105.562256 16.903183,110.601105 
	C14.753951,113.249969 12.448305,112.667351 11.981412,110.019432 
	C11.095621,104.995789 11.073643,99.819817 11.127428,94.149002 
	C11.655570,93.210983 11.749135,92.831093 11.842700,92.451202 
	C11.842700,92.451202 11.789476,92.171318 12.145537,91.906769 
	C12.622051,91.265785 12.742504,90.889351 12.862957,90.512924 
	C12.862957,90.512924 12.843522,90.201546 13.169916,89.978333 
	C13.753890,89.538857 13.913695,89.265434 13.975726,88.934860 
	C14.037129,88.620247 14.189330,88.358414 14.895571,87.943985 
	C15.534459,87.425026 15.710107,87.111450 15.885756,86.797882 
	C15.885756,86.797882 15.906376,86.908012 16.119900,86.819763 
	C16.522654,86.424492 16.711885,86.117455 16.901115,85.810425 
	C16.901115,85.810425 16.921738,85.910461 17.329823,85.940117 
	C19.176752,86.459663 20.615597,86.949554 22.054440,87.439453 
	C21.530964,87.858505 21.007488,88.277565 19.810932,88.846031 
	C18.426701,89.999863 17.715549,91.004272 17.004398,92.008690 
	C16.955612,92.200806 16.906828,92.392914 16.351341,92.898964 
	C15.615916,93.960503 15.387197,94.708099 15.158478,95.455704 
z"/>
<path fill="#22537C" opacity="1.000000" stroke="none" 
	d="
M22.392548,87.335022 
	C20.615597,86.949554 19.176752,86.459663 17.284197,85.917175 
	C24.960604,78.932518 36.864956,79.083847 42.683620,87.163666 
	C40.245373,87.163666 38.489063,87.157707 36.732803,87.164818 
	C32.065411,87.183731 27.398035,87.208282 22.392548,87.335022 
z"/>
<path fill="#144672" opacity="1.000000" stroke="none" 
	d="
M49.389999,121.980286 
	C48.580231,121.106300 48.083153,120.093941 47.223236,119.014130 
	C48.920860,114.755836 50.811417,110.466629 53.145771,106.434341 
	C53.842327,105.231133 55.781689,104.747406 57.546326,104.019302 
	C57.943790,111.293770 54.810944,117.026596 49.389999,121.980286 
z"/>
<path fill="#235279" opacity="1.000000" stroke="none" 
	d="
M36.146927,77.529686 
	C35.473751,76.202194 35.363670,74.432091 34.611191,74.094681 
	C32.759735,73.264503 30.612875,73.093140 28.310488,72.406326 
	C34.401691,71.474373 40.167221,73.140686 45.726875,76.849060 
	C45.057980,77.967926 44.133770,78.849358 43.027130,80.027954 
	C40.702381,79.463058 38.560059,78.601013 36.146927,77.529686 
z"/>
<path fill="#1A5184" opacity="1.000000" stroke="none" 
	d="
M28.992149,116.455109 
	C29.223637,117.366562 29.455124,118.278023 29.795910,119.619835 
	C28.247007,119.777161 26.879463,119.916061 25.112791,120.096558 
	C22.308569,119.071762 19.903473,118.005371 17.498375,116.938980 
	C17.710499,116.261398 17.922625,115.583824 18.134748,114.906242 
	C19.805794,114.906242 21.476841,114.906242 23.577427,114.929092 
	C24.006968,114.951935 24.256456,115.183159 24.719280,115.434250 
	C26.452118,115.941925 27.722134,116.198517 28.992149,116.455109 
z"/>
<path fill="#22537C" opacity="1.000000" stroke="none" 
	d="
M17.229883,91.890579 
	C17.715549,91.004272 18.426701,89.999863 19.499798,88.975601 
	C19.521101,89.400810 19.180458,89.845856 18.736105,90.553970 
	C18.240051,91.135521 17.847712,91.453995 17.229883,91.890579 
z"/>
<path fill="#235279" opacity="1.000000" stroke="none" 
	d="
M25.343029,76.973511 
	C25.558678,76.770378 26.101263,76.597534 26.803520,76.620560 
	C26.532116,76.878883 26.101040,76.941338 25.343029,76.973511 
z"/>
<path fill="#144672" opacity="1.000000" stroke="none" 
	d="
M45.662476,119.948608 
	C45.491737,120.223343 45.033310,120.576385 44.266087,120.953491 
	C44.429790,120.660675 44.902290,120.343796 45.662476,119.948608 
z"/>
<path fill="#22537C" opacity="1.000000" stroke="none" 
	d="
M16.640730,85.898254 
	C16.711885,86.117455 16.522654,86.424492 16.064840,86.809418 
	C15.990953,86.586906 16.185648,86.286499 16.640730,85.898254 
z"/>
<path fill="#22537C" opacity="1.000000" stroke="none" 
	d="
M12.621519,90.694382 
	C12.742504,90.889351 12.622051,91.265785 12.258152,91.819534 
	C12.136497,91.623177 12.258288,91.249512 12.621519,90.694382 
z"/>
<path fill="#22537C" opacity="1.000000" stroke="none" 
	d="
M15.621394,86.891045 
	C15.710107,87.111450 15.534459,87.425026 15.102560,87.842491 
	C15.016550,87.625664 15.186792,87.304939 15.621394,86.891045 
z"/>
<path fill="#22537C" opacity="1.000000" stroke="none" 
	d="
M11.609203,92.641479 
	C11.749135,92.831093 11.655570,93.210983 11.337473,93.785507 
	C11.200529,93.597343 11.288118,93.214554 11.609203,92.641479 
z"/>
<path fill="#22537C" opacity="1.000000" stroke="none" 
	d="
M13.723387,89.006424 
	C13.913695,89.265434 13.753890,89.538857 13.286579,89.874779 
	C13.208248,89.688957 13.339648,89.383469 13.723387,89.006424 
z"/>
<path fill="#DCF2F9" opacity="1.000000" stroke="none" 
	d="
M74.000801,113.992989 
	C73.360641,113.210083 72.720474,112.427185 72.061996,111.325882 
	C72.355850,110.224785 72.668022,109.442085 73.264755,108.487839 
	C74.095238,109.196655 74.641174,110.077011 75.292114,111.273170 
	C79.282303,114.315918 83.167488,117.042854 86.907822,120.006790 
	C85.840889,120.165024 84.918793,120.086266 83.996704,120.007507 
	C83.247673,120.000336 82.498650,119.993156 81.070328,119.853622 
	C78.260956,117.811836 76.130882,115.902412 74.000801,113.992989 
z"/>
<path fill="#12497A" opacity="1.000000" stroke="none" 
	d="
M75.187103,110.957367 
	C74.641174,110.077011 74.095238,109.196655 73.282776,108.149948 
	C72.998291,103.622078 72.980347,99.260559 72.993454,94.483688 
	C73.024498,94.068329 73.441353,93.964851 73.696335,94.354347 
	C74.971786,99.832184 75.992264,104.920525 76.771095,110.099442 
	C76.082001,110.445801 75.634552,110.701584 75.187103,110.957367 
z"/>
<path fill="#FFFFFF" opacity="1.000000" stroke="none" 
	d="
M3.608298,120.533264 
	C4.058832,120.649467 4.335102,120.933304 4.590000,121.235184 
	C4.596558,121.242966 4.368917,121.448494 4.250500,121.561790 
	C3.977407,121.275620 3.704316,120.989449 3.608298,120.533264 
z"/>
<path fill="#144672" opacity="1.000000" stroke="none" 
	d="
M45.377579,125.093903 
	C45.832302,124.452446 46.614082,123.762428 47.732174,123.055176 
	C47.280537,123.707069 46.492588,124.376213 45.377579,125.093903 
z"/>
<path fill="#144672" opacity="1.000000" stroke="none" 
	d="
M48.286343,122.997971 
	C48.231518,122.792480 48.436195,122.515869 48.887901,122.146851 
	C48.938568,122.345238 48.742207,122.636040 48.286343,122.997971 
z"/>
<path fill="#0A4983" opacity="1.000000" stroke="none" 
	d="
M191.112305,111.710403 
	C190.652756,112.091530 190.396210,112.268646 190.062836,112.720032 
	C187.535995,114.185410 186.562378,118.700424 182.122055,116.220390 
	C181.741806,116.267151 181.768784,116.248848 181.830673,115.873489 
	C181.487122,114.723442 181.081680,113.948761 180.676239,113.174072 
	C180.676239,113.174072 180.790970,113.126762 180.841003,112.787247 
	C180.179199,110.672867 179.467346,108.898018 178.809937,107.111771 
	C178.864365,107.100388 178.834366,107.207504 178.813965,106.963974 
	C178.670212,106.401039 178.455765,106.164017 178.079285,105.659317 
	C177.624588,104.225868 177.240891,103.142479 177.153259,101.821823 
	C177.085693,100.428932 176.684540,98.273567 176.364746,98.285568 
	C174.719879,98.347343 171.887650,98.640663 171.671143,99.445358 
	C170.665375,103.183563 170.386292,107.117287 169.847122,110.981026 
	C169.161316,112.225998 168.475510,113.470978 167.227936,114.947227 
	C166.455170,115.477585 166.244217,115.776680 166.033249,116.075768 
	C166.033249,116.075768 166.007431,116.008873 165.817230,116.089294 
	C165.344391,116.326439 165.137131,116.552353 165.005295,116.847466 
	C158.954559,119.274353 159.571640,113.203461 158.253998,110.814529 
	C155.990189,106.710175 155.115036,101.839897 153.343475,97.106934 
	C153.029984,96.922737 152.976776,96.451256 152.899567,96.226860 
	C152.131546,93.298363 151.440765,90.594254 150.657745,87.502357 
	C154.407150,84.207649 156.004578,84.659386 157.568588,89.014221 
	C158.039200,90.324623 158.695572,91.568306 159.618423,92.927399 
	C161.150192,96.707870 162.330368,100.403511 163.974335,105.551422 
	C165.625748,102.155304 166.709335,99.926926 168.192322,97.301590 
	C170.413071,92.957870 172.234421,89.011101 174.004150,85.176170 
	C176.195740,86.308296 177.697678,87.084160 179.199615,87.860023 
	C179.199615,87.860023 179.073792,87.961197 179.079117,88.206451 
	C179.384644,88.964821 179.684845,89.477943 179.985046,89.991058 
	C180.004486,90.423988 180.023941,90.856911 179.805145,91.829933 
	C178.159912,95.805832 180.173691,97.561501 182.825195,99.003944 
	C182.825195,99.003944 182.971542,99.427689 183.008118,99.648727 
	C183.510651,102.592682 183.976608,105.315598 184.442566,108.038513 
	C184.837875,107.967743 185.233200,107.896973 185.628510,107.826202 
	C187.502792,104.243660 189.377075,100.661110 191.625671,97.039238 
	C192.000000,96.999916 192.011963,97.011436 192.011963,97.011436 
	C191.599869,101.273758 191.187775,105.536072 191.092194,109.980911 
	C191.359741,110.585281 191.310806,111.007133 191.112305,111.710403 
z"/>
<path fill="#0A4983" opacity="1.000000" stroke="none" 
	d="
M191.994202,96.993835 
	C192.231430,96.479843 192.454407,95.959572 192.748062,95.482834 
	C192.777969,95.434303 193.232727,95.647461 193.490326,95.739182 
	C193.188583,96.139420 192.886841,96.539665 192.298523,96.975677 
	C192.011963,97.011436 192.000000,96.999916 191.994202,96.993835 
z"/>
<path fill="#EEF7F9" opacity="1.000000" stroke="none" 
	d="
M135.622879,107.862740 
	C134.552292,108.738129 133.481705,109.613510 131.806259,110.742805 
	C128.918579,111.210983 126.571693,111.872169 124.364906,111.555885 
	C117.689064,110.599068 112.209793,100.664757 120.270859,92.062698 
	C120.815971,91.842010 121.017426,91.593498 121.464111,91.239517 
	C122.418533,90.895317 123.022499,90.571289 123.717041,90.270630 
	C123.807632,90.294014 123.969078,90.199440 124.381058,90.223351 
	C134.797211,89.989891 138.862183,95.257423 136.897995,105.933304 
	C136.897995,105.933304 136.990768,105.980972 136.708710,106.113205 
	C136.158722,106.784546 135.890793,107.323639 135.622879,107.862740 
z"/>
<path fill="#25537D" opacity="1.000000" stroke="none" 
	d="
M137.280731,105.887802 
	C138.862183,95.257423 134.797211,89.989891 124.565598,89.905731 
	C126.742523,89.099380 129.146896,88.634552 132.631378,87.960907 
	C131.018188,86.754097 129.996826,85.374565 128.796143,85.195152 
	C122.608253,84.270554 117.303040,86.118324 113.048027,90.854172 
	C109.593811,94.698715 109.167435,99.392555 110.266319,103.906883 
	C111.565857,109.245552 113.350929,114.773857 120.117226,116.266541 
	C120.399254,116.710938 120.638550,116.874535 121.317978,116.973526 
	C122.467621,117.014061 123.234283,117.035614 124.000938,117.057167 
	C127.193832,116.876434 130.386719,116.695702 133.627808,117.021858 
	C133.052719,117.990791 132.429413,118.452827 131.806122,118.914864 
	C131.806122,118.914864 131.372833,118.912407 130.872528,118.992905 
	C130.023132,119.274353 129.674011,119.475311 129.324905,119.676262 
	C128.736969,119.672722 128.149033,119.669182 126.914421,119.704987 
	C125.506958,119.803299 124.746170,119.862274 123.985374,119.921249 
	C123.672867,119.816612 123.360367,119.711967 122.516953,119.474678 
	C120.328842,118.866570 118.671661,118.391121 117.014473,117.915672 
	C116.569206,117.561653 116.123940,117.207634 115.264191,116.503098 
	C113.912369,115.408966 112.975029,114.665344 112.037689,113.921730 
	C112.021461,113.583900 111.876793,113.315231 111.308197,112.669861 
	C110.058136,110.394218 109.103539,108.564453 108.161278,106.535019 
	C108.173607,106.335358 107.955666,105.999847 107.986511,105.550735 
	C107.961067,102.405823 107.904785,99.710022 107.943024,96.766869 
	C108.015427,96.344391 107.993309,96.169250 107.971207,95.994118 
	C108.703613,94.403130 109.436028,92.812134 110.217949,90.900681 
	C111.105194,89.610954 111.942917,88.641693 113.192787,87.296448 
	C113.842232,86.610527 114.079536,86.300583 114.316849,85.990631 
	C114.476967,85.940498 114.637077,85.890358 114.962082,85.649918 
	C123.655815,81.051880 130.047104,81.312202 135.603775,86.850204 
	C136.665131,91.621941 137.837250,95.841637 139.009369,100.061340 
	C138.560730,101.988327 138.112091,103.915306 137.280731,105.887802 
z"/>
<path fill="#074B89" opacity="1.000000" stroke="none" 
	d="
M120.017357,116.069305 
	C113.350929,114.773857 111.565857,109.245552 110.266319,103.906883 
	C109.167435,99.392555 109.593811,94.698715 113.048027,90.854172 
	C117.303040,86.118324 122.608253,84.270554 128.796143,85.195152 
	C129.996826,85.374565 131.018188,86.754097 132.631378,87.960907 
	C129.146896,88.634552 126.742523,89.099380 124.153610,89.881821 
	C123.969078,90.199440 123.807632,90.294014 123.336777,90.213867 
	C122.281830,90.509033 121.697731,90.884354 121.113640,91.259674 
	C121.017426,91.593498 120.815971,91.842010 120.246613,91.767288 
	C119.515549,91.358528 118.803062,90.899963 118.614967,91.059525 
	C115.211617,93.946732 113.161789,103.398445 115.167030,107.889130 
	C117.256958,112.569420 121.447319,113.327789 126.022171,113.029449 
	C125.473312,114.181808 124.924446,115.334160 124.188263,116.771843 
	C123.234283,117.035614 122.467621,117.014061 121.230446,116.767792 
	C120.574478,116.287926 120.326950,116.129997 120.017357,116.069305 
z"/>
<path fill="#064E8D" opacity="1.000000" stroke="none" 
	d="
M139.298187,100.263275 
	C137.837250,95.841637 136.665131,91.621941 135.733185,87.175217 
	C135.973343,86.948196 136.444519,86.986534 136.677689,86.944901 
	C138.177887,86.617188 139.685944,85.768257 140.653091,86.182442 
	C141.966446,86.744888 143.722214,88.231613 143.779419,89.396049 
	C143.938995,92.644241 143.290619,95.928101 143.019150,99.202682 
	C142.773727,102.162888 141.834991,103.043625 139.298187,100.263275 
z"/>
<path fill="#25537D" opacity="1.000000" stroke="none" 
	d="
M126.433113,113.021240 
	C121.447319,113.327789 117.256958,112.569420 115.167030,107.889130 
	C113.161789,103.398445 115.211617,93.946732 118.614967,91.059525 
	C118.803062,90.899963 119.515549,91.358528 120.008194,91.824783 
	C112.209793,100.664757 117.689064,110.599068 124.364906,111.555885 
	C126.571693,111.872169 128.918579,111.210983 131.600037,110.960587 
	C130.280472,111.620659 128.562256,112.316849 126.433113,113.021240 
z"/>
<path fill="#F7FEFD" opacity="1.000000" stroke="none" 
	d="
M147.002441,103.999390 
	C152.320755,108.410347 152.235016,114.549477 146.446960,117.952072 
	C145.980804,113.632568 145.875854,109.269356 146.128387,104.453407 
	C146.658035,104.000244 146.830231,103.999817 147.002441,103.999390 
z"/>
<path fill="#F7FEFD" opacity="1.000000" stroke="none" 
	d="
M149.964005,92.637039 
	C149.534546,93.726891 148.980911,94.421097 148.614090,95.202942 
	C148.212799,96.058273 147.984177,96.994606 147.341858,97.582123 
	C146.665634,96.179649 146.327866,95.090683 145.990112,94.001717 
	C145.920502,92.926826 145.850891,91.851929 145.877930,90.381897 
	C147.290436,90.751167 148.606293,91.515587 149.964005,92.637039 
z"/>
<path fill="#DFF2FA" opacity="1.000000" stroke="none" 
	d="
M132.252182,118.950882 
	C132.429413,118.452827 133.052719,117.990791 133.839981,117.284134 
	C134.809158,116.579781 135.614380,116.120026 136.763153,115.464104 
	C136.877518,116.513649 136.971909,117.379837 137.112793,118.572845 
	C135.672272,118.928749 134.185257,118.957825 132.252182,118.950882 
z"/>
<path fill="#E8F9FD" opacity="1.000000" stroke="none" 
	d="
M145.888031,94.446304 
	C146.327866,95.090683 146.665634,96.179649 147.006470,97.635529 
	C147.006363,99.715904 147.003204,101.429359 147.001251,103.571106 
	C146.830231,103.999817 146.658035,104.000244 146.227585,103.996910 
	C145.908188,100.959061 145.847076,97.924980 145.888031,94.446304 
z"/>
<path fill="#25537D" opacity="1.000000" stroke="none" 
	d="
M135.938324,107.765762 
	C135.890793,107.323639 136.158722,106.784546 136.675980,106.072601 
	C136.701477,106.489426 136.477631,107.079102 135.938324,107.765762 
z"/>
<path fill="#205281" opacity="1.000000" stroke="none" 
	d="
M179.207718,87.554359 
	C177.697678,87.084160 176.195740,86.308296 174.004150,85.176170 
	C172.234421,89.011101 170.413071,92.957870 168.224152,96.978088 
	C168.947617,92.702400 170.038666,88.353279 171.180893,83.800163 
	C174.396347,84.312523 178.115082,82.563454 179.207718,87.554359 
z"/>
<path fill="#205281" opacity="1.000000" stroke="none" 
	d="
M182.893433,98.632736 
	C180.173691,97.561501 178.159912,95.805832 179.850739,92.154892 
	C181.076950,94.047012 182.019318,96.154266 182.893433,98.632736 
z"/>
<path fill="#205281" opacity="1.000000" stroke="none" 
	d="
M180.060150,89.675140 
	C179.684845,89.477943 179.384644,88.964821 179.120697,88.137245 
	C179.483047,88.334938 179.809143,88.847084 180.060150,89.675140 
z"/>
<path fill="#145388" opacity="1.000000" stroke="none" 
	d="
M77.012741,110.008865 
	C75.992264,104.920525 74.971786,99.832184 73.906036,94.308029 
	C73.860748,93.872223 73.899712,93.928162 74.048927,93.894943 
	C74.301598,93.800636 74.500633,93.719513 74.492729,93.681770 
	C74.447083,93.463966 74.352547,93.256409 74.274574,93.045380 
	C75.646584,91.112030 77.018593,89.178680 78.844734,87.314835 
	C82.532364,86.592941 85.765877,85.801544 88.999573,85.382050 
	C88.996750,86.497620 88.993729,87.241272 88.732941,88.100128 
	C87.982582,88.770142 87.489990,89.324936 86.781670,89.942596 
	C86.565933,90.005455 86.117371,90.036377 85.792542,90.048035 
	C85.000633,90.438980 84.533569,90.818260 84.059265,91.132355 
	C84.052032,91.067177 84.182632,91.079239 83.918312,91.169044 
	C83.462402,91.566391 83.270821,91.873932 83.072723,92.122864 
	C83.066200,92.064255 83.183060,92.080238 82.918533,92.169884 
	C82.462753,92.567749 82.271492,92.875969 82.087402,93.130508 
	C82.094574,93.076820 82.191612,93.124954 81.885239,93.111343 
	C77.505539,95.509743 77.285576,96.353149 80.126701,99.379272 
	C80.478279,101.209656 80.744232,102.654884 81.046631,104.440903 
	C83.236961,111.153030 87.174553,115.280556 95.810844,114.275314 
	C86.644058,119.842537 81.798882,115.021873 77.012741,110.008865 
z"/>
<path fill="#F8FCFB" opacity="1.000000" stroke="none" 
	d="
M107.699768,95.792137 
	C107.993309,96.169250 108.015427,96.344391 107.681931,97.000290 
	C105.222427,100.491585 106.049004,103.285614 107.955666,105.999847 
	C107.955666,105.999847 108.173607,106.335358 107.990707,106.902115 
	C107.549789,109.304405 107.291763,111.139938 106.716476,113.139648 
	C105.599281,115.535271 104.799332,117.766724 103.999390,119.998169 
	C97.533638,124.316513 90.909180,124.452316 84.067924,120.379654 
	C84.918793,120.086266 85.840889,120.165024 87.242554,119.994759 
	C88.152824,119.855888 88.583519,119.966049 89.252472,120.330078 
	C90.993477,120.404182 92.496223,120.224411 94.190048,119.946655 
	C94.381126,119.848679 94.805008,119.917709 95.158546,119.967499 
	C96.339920,119.696785 97.167755,119.376282 98.222404,118.858940 
	C99.192329,118.393372 99.935440,118.124649 100.878548,117.862640 
	C101.194748,117.809013 101.417252,117.726059 101.410011,117.691994 
	C101.360741,117.460442 101.263039,117.239197 101.173111,116.681778 
	C101.229851,115.911774 101.294456,115.474625 101.653641,114.969574 
	C101.750771,113.613991 101.553337,112.326302 101.211761,110.697792 
	C100.399818,110.322166 99.732002,110.287361 99.004822,109.890884 
	C97.892784,109.147171 96.336258,108.116081 95.864479,108.482323 
	C90.468414,112.671272 91.000359,108.634216 91.048508,105.053078 
	C91.031052,104.947380 90.933525,104.756607 91.191818,104.724533 
	C91.893105,104.430939 92.336113,104.169411 93.156387,103.933723 
	C95.684837,102.962875 97.836021,101.966194 100.132172,101.305252 
	C101.156006,103.886688 102.034866,106.132378 103.006790,108.615868 
	C106.744171,104.637016 104.295830,101.332817 102.972801,97.560341 
	C102.866051,96.308105 102.759865,95.475830 102.729065,94.669113 
	C102.804459,94.694672 102.648148,94.724899 102.962402,94.676208 
	C103.457191,94.265274 103.637711,93.903030 103.875557,93.355171 
	C104.084862,92.933205 104.300987,92.805000 104.581268,92.784958 
	C105.530296,93.720024 106.479317,94.655090 107.699768,95.792137 
z"/>
<path fill="#12497A" opacity="1.000000" stroke="none" 
	d="
M92.779114,103.907883 
	C92.336113,104.169411 91.893105,104.430939 91.215782,104.303238 
	C90.034851,102.038559 89.088249,100.163086 88.348167,98.017670 
	C90.701065,95.985451 92.847443,94.223160 94.987534,92.805527 
	C95.062828,93.754791 95.144402,94.359390 95.225975,94.963997 
	C95.452965,94.896347 95.679955,94.828697 95.906952,94.761047 
	C95.602348,93.990891 95.297752,93.220741 95.031029,92.124870 
	C94.701370,91.207718 94.377594,90.142258 93.959007,90.103607 
	C91.651260,89.890503 89.320366,89.928116 86.997406,89.879738 
	C87.489990,89.324936 87.982582,88.770142 89.152802,88.104973 
	C91.908485,87.994606 93.986534,87.994606 96.077812,87.994606 
	C96.009804,86.797531 95.960670,85.932671 95.908264,85.010147 
	C93.567245,85.010147 91.283318,85.010147 88.999382,85.010147 
	C85.765877,85.801544 82.532364,86.592941 79.100540,87.104515 
	C85.544678,81.112480 92.881607,82.223885 100.492325,85.244423 
	C100.757462,88.942192 97.462906,92.281281 101.116043,95.404266 
	C99.620857,96.456535 98.304230,97.216118 96.941788,97.825348 
	C96.798126,97.628700 96.700287,97.582397 96.602440,97.536102 
	C96.726929,97.686768 96.851418,97.837433 96.968857,98.333313 
	C95.567574,100.421654 94.173347,102.164772 92.779114,103.907883 
z"/>
<path fill="#205281" opacity="1.000000" stroke="none" 
	d="
M101.294594,95.111572 
	C97.462906,92.281281 100.757462,88.942192 100.791382,85.506821 
	C102.979820,87.101250 107.225197,87.776581 104.756393,92.477386 
	C104.300987,92.805000 104.084862,92.933205 103.610809,93.478317 
	C103.075203,94.099686 102.861671,94.412292 102.648148,94.724899 
	C102.648148,94.724899 102.804459,94.694672 102.493660,94.726868 
	C101.931900,94.990265 101.635811,95.107765 101.294594,95.111572 
z"/>
<path fill="#12497A" opacity="1.000000" stroke="none" 
	d="
M74.127869,93.243958 
	C74.352547,93.256409 74.447083,93.463966 74.492729,93.681770 
	C74.500633,93.719513 74.301598,93.800636 74.015884,93.887741 
	C73.833633,93.913773 73.981171,93.442543 74.127869,93.243958 
z"/>
<path fill="#E1F4F8" opacity="1.000000" stroke="none" 
	d="
M114.029648,86.075729 
	C114.079536,86.300583 113.842232,86.610527 113.316376,87.001175 
	C113.266037,86.774872 113.504242,86.467850 114.029648,86.075729 
z"/>
<path fill="#FCFBF3" opacity="1.000000" stroke="none" 
	d="
M104.364609,120.037102 
	C104.799332,117.766724 105.599281,115.535271 107.042908,113.141487 
	C108.122673,112.984421 108.558739,112.989685 108.994812,112.994949 
	C108.996178,115.366646 108.997551,117.738342 108.998398,120.554260 
	C107.575180,120.690994 106.152504,120.383514 104.364609,120.037102 
z"/>
<path fill="#DFF2FA" opacity="1.000000" stroke="none" 
	d="
M109.358170,112.988983 
	C108.558739,112.989685 108.122673,112.984421 107.360168,112.977310 
	C107.291763,111.139938 107.549789,109.304405 107.978378,107.101776 
	C109.103539,108.564453 110.058136,110.394218 111.093231,112.574173 
	C110.689659,112.943901 110.205597,112.963455 109.358170,112.988983 
z"/>
<path fill="#DFF2FA" opacity="1.000000" stroke="none" 
	d="
M112.024597,114.287781 
	C112.975029,114.665344 113.912369,115.408966 114.983627,116.422295 
	C112.902962,118.008148 112.722221,117.889549 112.024597,114.287781 
z"/>
<path fill="#DFF2FA" opacity="1.000000" stroke="none" 
	d="
M117.088287,118.314613 
	C118.671661,118.391121 120.328842,118.866570 122.287102,119.576736 
	C120.779480,119.445488 118.970795,119.079521 117.088287,118.314613 
z"/>
<path fill="#DFF2FA" opacity="1.000000" stroke="none" 
	d="
M124.165421,120.185150 
	C124.746170,119.862274 125.506958,119.803299 126.642105,119.827415 
	C126.126129,120.090019 125.235794,120.269539 124.165421,120.185150 
z"/>
<path fill="#DFF2FA" opacity="1.000000" stroke="none" 
	d="
M129.639099,119.725372 
	C129.674011,119.475311 130.023132,119.274353 130.683853,119.099335 
	C130.648087,119.341682 130.300690,119.558090 129.639099,119.725372 
z"/>
<path fill="#F8FCFB" opacity="1.000000" stroke="none" 
	d="
M73.999992,114.430038 
	C76.130882,115.902412 78.260956,117.811836 80.695786,119.855507 
	C79.655975,120.371368 78.247406,121.187439 76.986427,121.001686 
	C75.913986,120.843697 74.624489,119.712128 74.141502,118.679123 
	C73.645462,117.618187 74.010803,116.154510 73.999992,114.430038 
z"/>
<path fill="#24527F" opacity="1.000000" stroke="none" 
	d="
M169.973495,110.684341 
	C170.386292,107.117287 170.665375,103.183563 171.671143,99.445358 
	C171.887650,98.640663 174.719879,98.347343 176.364746,98.285568 
	C176.684540,98.273567 177.085693,100.428932 176.759766,101.808807 
	C172.055771,101.550781 171.952606,104.162155 172.094788,107.233154 
	C172.050201,107.463463 171.969223,107.925583 171.969238,107.925583 
	C171.346115,108.746284 170.722992,109.566971 169.973495,110.684341 
z"/>
<path fill="#FFFFFF" opacity="1.000000" stroke="none" 
	d="
M171.977997,108.298065 
	C171.969223,107.925583 172.050201,107.463463 172.477951,107.245560 
	C173.611374,108.688408 174.317047,110.349152 175.022720,112.009895 
	C174.914948,112.334816 174.722717,112.598053 174.226105,112.913902 
	C173.333054,111.575661 172.659912,110.123108 171.977997,108.298065 
z"/>
<path fill="#FFFFFF" opacity="1.000000" stroke="none" 
	d="
M173.000427,115.358055 
	C175.228714,115.506592 175.635880,116.441628 173.319626,117.958817 
	C172.987274,117.249893 172.993454,116.493263 173.000427,115.358055 
z"/>
<path fill="#1B4D7E" opacity="1.000000" stroke="none" 
	d="
M165.269531,116.876709 
	C165.137131,116.552353 165.344391,116.326439 165.850510,116.102646 
	C165.893890,116.325691 165.713821,116.615822 165.269531,116.876709 
z"/>
<path fill="#1B4D7E" opacity="1.000000" stroke="none" 
	d="
M166.302002,115.986549 
	C166.244217,115.776680 166.455170,115.477585 166.926819,115.071648 
	C166.981918,115.275642 166.776337,115.586487 166.302002,115.986549 
z"/>
<path fill="#F1FBFC" opacity="1.000000" stroke="none" 
	d="
M175.350464,111.960938 
	C174.317047,110.349152 173.611374,108.688408 172.522522,107.015259 
	C171.952606,104.162155 172.055771,101.550781 176.463715,102.046066 
	C177.240891,103.142479 177.624588,104.225868 178.035202,105.923660 
	C178.319534,106.761208 178.576950,106.984360 178.834366,107.207504 
	C178.834366,107.207504 178.864365,107.100388 178.856720,107.469894 
	C178.903122,108.558624 178.957184,109.277863 179.011261,109.997086 
	C177.900238,110.635384 176.789230,111.273674 175.350464,111.960938 
z"/>
<path fill="#205281" opacity="1.000000" stroke="none" 
	d="
M179.273468,110.186752 
	C178.957184,109.277863 178.903122,108.558624 178.802277,107.481277 
	C179.467346,108.898018 180.179199,110.672867 180.817307,112.844589 
	C180.340927,112.286446 179.938293,111.331429 179.273468,110.186752 
z"/>
<path fill="#205281" opacity="1.000000" stroke="none" 
	d="
M180.725311,113.509827 
	C181.081680,113.948761 181.487122,114.723442 181.820251,115.866959 
	C181.423416,115.439064 181.098907,114.642319 180.725311,113.509827 
z"/>
<path fill="#D5EEF8" opacity="1.000000" stroke="none" 
	d="
M188.752808,118.070251 
	C188.723068,118.448540 188.448044,118.825470 188.057434,119.010941 
	C187.980988,118.456657 188.169540,118.206467 188.752808,118.070251 
z"/>
<path fill="#DDF1F8" opacity="1.000000" stroke="none" 
	d="
M29.395372,116.371742 
	C27.722134,116.198517 26.452118,115.941925 24.889055,115.424072 
	C28.480337,114.791107 32.364666,114.419411 36.706078,114.105331 
	C34.708302,114.871429 32.253448,115.579903 29.395372,116.371742 
z"/>
<path fill="#22537C" opacity="1.000000" stroke="none" 
	d="
M15.392623,95.288345 
	C15.387197,94.708099 15.615916,93.960503 16.136147,93.104111 
	C16.160696,93.703888 15.893731,94.412437 15.392623,95.288345 
z"/>
<path fill="#DDF1F8" opacity="1.000000" stroke="none" 
	d="
M38.630997,112.991455 
	C38.521935,113.357094 38.107124,113.741631 37.403397,114.167938 
	C37.518074,113.809921 37.921661,113.410141 38.630997,112.991455 
z"/>
<path fill="#1A5184" opacity="1.000000" stroke="none" 
	d="
M88.141647,98.287613 
	C89.088249,100.163086 90.034851,102.038559 90.957489,104.335312 
	C90.933525,104.756607 91.031052,104.947380 90.834862,105.005676 
	C90.638672,105.063972 90.201019,105.069061 89.830704,105.048492 
	C86.898224,105.236908 85.198509,106.110626 86.195419,109.525719 
	C89.319763,113.162430 93.936951,113.283096 99.064194,110.252548 
	C99.732002,110.287361 100.399818,110.322166 101.100243,111.087646 
	C101.208260,112.891365 101.283661,113.964417 101.359070,115.037468 
	C101.294456,115.474625 101.229851,115.911774 100.992050,116.858963 
	C100.772079,117.531311 100.725311,117.693619 100.678551,117.855927 
	C99.935440,118.124649 99.192329,118.393372 97.882767,118.848358 
	C96.479202,119.328979 95.642105,119.623344 94.805008,119.917709 
	C94.805008,119.917709 94.381126,119.848679 93.776596,119.891106 
	C91.786118,119.981094 90.400169,120.028656 89.014214,120.076210 
	C88.583519,119.966049 88.152824,119.855888 87.387398,119.757767 
	C83.167488,117.042854 79.282303,114.315918 75.292114,111.273170 
	C75.634552,110.701584 76.082001,110.445801 76.771088,110.099442 
	C81.798882,115.021873 86.644058,119.842537 95.810844,114.275314 
	C87.174553,115.280556 83.236961,111.153030 81.333557,104.306808 
	C81.923042,103.585960 82.262047,103.339981 82.707443,103.401749 
	C85.559677,102.929451 89.239525,103.086708 88.126381,98.391068 
	C88.135544,98.357307 88.141647,98.287613 88.141647,98.287613 
z"/>
<path fill="#205281" opacity="1.000000" stroke="none" 
	d="
M178.813965,106.963974 
	C178.576950,106.984360 178.319534,106.761208 178.106201,106.273712 
	C178.455765,106.164017 178.670212,106.401039 178.813965,106.963974 
z"/>
<path fill="#25537D" opacity="1.000000" stroke="none" 
	d="
M121.464111,91.239517 
	C121.697731,90.884354 122.281830,90.509033 123.246185,90.190483 
	C123.022499,90.571289 122.418533,90.895317 121.464111,91.239517 
z"/>
<path fill="#DFF2FA" opacity="1.000000" stroke="none" 
	d="
M107.986511,105.550735 
	C106.049004,103.285614 105.222427,100.491585 107.587402,97.247635 
	C107.904785,99.710022 107.961067,102.405823 107.986511,105.550735 
z"/>
<path fill="#205587" opacity="1.000000" stroke="none" 
	d="
M120.117226,116.266541 
	C120.326950,116.129997 120.574478,116.287926 120.847458,116.748810 
	C120.638550,116.874535 120.399254,116.710938 120.117226,116.266541 
z"/>
<path fill="#DCF2F9" opacity="1.000000" stroke="none" 
	d="
M82.601051,103.094002 
	C82.262047,103.339981 81.923042,103.585960 81.297119,103.966034 
	C80.744232,102.654884 80.478279,101.209656 80.171188,99.018204 
	C80.817238,96.556313 81.504425,94.840630 82.191612,93.124954 
	C82.191612,93.124954 82.094574,93.076820 82.355614,93.048561 
	C82.805458,92.706947 82.994255,92.393593 83.183060,92.080238 
	C83.183060,92.080238 83.066200,92.064255 83.330597,92.025818 
	C83.790871,91.684669 83.986755,91.381950 84.182632,91.079239 
	C84.182632,91.079239 84.052032,91.067177 84.375854,91.080444 
	C85.172241,90.741272 85.644806,90.388824 86.117371,90.036377 
	C86.117371,90.036377 86.565933,90.005455 86.781670,89.942596 
	C89.320366,89.928116 91.651260,89.890503 93.959007,90.103607 
	C94.377594,90.142258 94.701370,91.207718 95.059830,92.152328 
	C95.050751,92.505493 94.993813,92.460869 94.993813,92.460869 
	C92.847443,94.223160 90.701065,95.985451 88.348167,98.017670 
	C88.141647,98.287613 88.135544,98.357307 87.857765,98.488823 
	C85.920341,100.111565 84.260696,101.602783 82.601051,103.094002 
z"/>
<path fill="#064E8D" opacity="1.000000" stroke="none" 
	d="
M88.999573,85.382057 
	C91.283318,85.010147 93.567245,85.010147 95.908264,85.010147 
	C95.960670,85.932671 96.009804,86.797531 96.077812,87.994606 
	C93.986534,87.994606 91.908485,87.994606 89.410568,87.989761 
	C88.993729,87.241272 88.996750,86.497620 88.999573,85.382057 
z"/>
<path fill="#12497A" opacity="1.000000" stroke="none" 
	d="
M81.885239,93.111343 
	C81.504425,94.840630 80.817238,96.556313 80.085571,98.633057 
	C77.285576,96.353149 77.505539,95.509743 81.885239,93.111343 
z"/>
<path fill="#12497A" opacity="1.000000" stroke="none" 
	d="
M85.792542,90.048035 
	C85.644806,90.388824 85.172241,90.741272 84.383095,91.145630 
	C84.533569,90.818260 85.000633,90.438980 85.792542,90.048035 
z"/>
<path fill="#12497A" opacity="1.000000" stroke="none" 
	d="
M82.918533,92.169884 
	C82.994255,92.393593 82.805458,92.706947 82.348442,93.102249 
	C82.271492,92.875969 82.462753,92.567749 82.918533,92.169884 
z"/>
<path fill="#12497A" opacity="1.000000" stroke="none" 
	d="
M83.918312,91.169044 
	C83.986755,91.381950 83.790871,91.684669 83.337112,92.084427 
	C83.270821,91.873932 83.462402,91.566391 83.918312,91.169044 
z"/>
<path fill="#DFF2FA" opacity="1.000000" stroke="none" 
	d="
M99.004822,109.890884 
	C93.936951,113.283096 89.319763,113.162430 86.462479,109.356491 
	C87.951569,107.555901 89.076294,106.312477 90.201019,105.069061 
	C90.201019,105.069061 90.638672,105.063972 90.852318,105.111374 
	C91.000359,108.634216 90.468414,112.671272 95.864479,108.482323 
	C96.336258,108.116081 97.892784,109.147171 99.004822,109.890884 
z"/>
<path fill="#DFF2FA" opacity="1.000000" stroke="none" 
	d="
M101.116043,95.404266 
	C101.635811,95.107765 101.931900,94.990265 102.418274,94.701309 
	C102.759865,95.475830 102.866051,96.308105 102.721130,97.734512 
	C101.642410,99.208931 100.814804,100.089211 99.987198,100.969505 
	C97.836021,101.966194 95.684837,102.962875 93.156387,103.933731 
	C94.173347,102.164772 95.567574,100.421654 96.981293,98.339417 
	C97.000778,98.000305 96.987602,97.975700 96.987602,97.975700 
	C98.304230,97.216118 99.620857,96.456535 101.116043,95.404266 
z"/>
<path fill="#FCFBF3" opacity="1.000000" stroke="none" 
	d="
M100.132172,101.305244 
	C100.814804,100.089211 101.642410,99.208931 102.721695,98.154472 
	C104.295830,101.332817 106.744171,104.637016 103.006790,108.615868 
	C102.034866,106.132378 101.156006,103.886688 100.132172,101.305244 
z"/>
<path fill="#DFF2FA" opacity="1.000000" stroke="none" 
	d="
M101.653633,114.969574 
	C101.283661,113.964417 101.208260,112.891365 101.244385,111.428459 
	C101.553337,112.326302 101.750771,113.613991 101.653633,114.969574 
z"/>
<path fill="#DCF2F9" opacity="1.000000" stroke="none" 
	d="
M89.252472,120.330078 
	C90.400169,120.028656 91.786118,119.981094 93.585526,119.989090 
	C92.496223,120.224411 90.993477,120.404182 89.252472,120.330078 
z"/>
<path fill="#DCF2F9" opacity="1.000000" stroke="none" 
	d="
M95.158546,119.967499 
	C95.642105,119.623344 96.479202,119.328979 97.655945,119.045197 
	C97.167755,119.376282 96.339920,119.696785 95.158546,119.967499 
z"/>
<path fill="#DFF2FA" opacity="1.000000" stroke="none" 
	d="
M102.962402,94.676208 
	C102.861671,94.412292 103.075203,94.099686 103.553482,93.663933 
	C103.637711,93.903030 103.457191,94.265274 102.962402,94.676208 
z"/>
<path fill="#DFF2FA" opacity="1.000000" stroke="none" 
	d="
M100.878548,117.862640 
	C100.725311,117.693619 100.772079,117.531311 100.999916,117.191811 
	C101.263039,117.239197 101.360741,117.460442 101.410011,117.691994 
	C101.417252,117.726059 101.194748,117.809013 100.878548,117.862640 
z"/>
<path fill="#205281" opacity="1.000000" stroke="none" 
	d="
M95.021950,92.478043 
	C95.297752,93.220741 95.602348,93.990891 95.906952,94.761047 
	C95.679955,94.828697 95.452965,94.896347 95.225975,94.963997 
	C95.144402,94.359390 95.062828,93.754791 94.987534,92.805527 
	C94.993813,92.460869 95.050751,92.505493 95.021950,92.478043 
z"/>
<path fill="#205281" opacity="1.000000" stroke="none" 
	d="
M96.988342,97.994202 
	C96.851418,97.837433 96.726929,97.686768 96.602440,97.536102 
	C96.700287,97.582397 96.798126,97.628700 96.941788,97.825348 
	C96.987602,97.975700 97.000778,98.000305 96.988342,97.994202 
z"/>
<path fill="#12497A" opacity="1.000000" stroke="none" 
	d="
M82.707443,103.401749 
	C84.260696,101.602783 85.920341,100.111565 87.848602,98.522583 
	C89.239525,103.086708 85.559677,102.929451 82.707443,103.401749 
z"/>
<path fill="#12497A" opacity="1.000000" stroke="none" 
	d="
M89.830704,105.048485 
	C89.076294,106.312477 87.951569,107.555901 86.559799,108.968536 
	C85.198509,106.110626 86.898224,105.236908 89.830704,105.048485 
z"/>
</svg>