<svg xmlns="http://www.w3.org/2000/svg" xmlns:xlink="http://www.w3.org/1999/xlink" version="1.1" id="Layer_1" x="0px" y="0px" viewBox="0 0 512 512" style="enable-background:new 0 0 512 512;" xml:space="preserve" width="512"  height="512" >
<style type="text/css">
	.st0{fill:#1A171B;}
	.st1{fill:#89BA17;}
	.st2{fill:#B0B2B3;}
</style>
<g id="XMLID_1_">
	<path id="XMLID_3_" class="st0" d="M113.32,324.63l0.42-0.42c0-0.98-0.84-0.56-0.84-6.45v-12.77c0-0.7-0.14-0.84-0.28-0.84   l-0.7,0.14l-3.51,0.7c-0.56,0.14-0.84,0.14-0.84,0.7v14.45c-0.56,0.42-1.82,1.26-3.65,1.26c-2.1,0-2.25-1.82-2.25-3.51v-13.05   c0-0.7-0.14-0.84-0.28-0.84l-0.7,0.14l-3.51,0.7c-0.56,0.14-0.84,0.14-0.84,0.7v14.17c0,4.91,3.09,6.03,5.33,6.03   c3.23,0,5.19-1.4,6.31-2.39c0.42,1.68,0.84,2.39,1.26,2.39l0.56-0.14L113.32,324.63z"/>
	<path id="XMLID_4_" class="st0" d="M135.63,310.18c0-4.91-3.09-6.03-5.33-6.03c-3.23,0-5.05,1.82-6.31,2.81   c-0.42-1.96-0.84-2.81-1.26-2.81l-0.56,0.14l-3.09,0.98l-0.42,0.42c0,0.98,0.84,0.56,0.84,6.45v12.35c0,0.42,0.14,0.56,0.56,0.56   h4.07c0.56,0,0.56-0.14,0.56-0.56v-14.45c0.56-0.56,1.82-1.68,3.65-1.68c2.1,0,2.25,1.82,2.25,3.51v12.63   c0,0.42,0.14,0.56,0.56,0.56h4.07c0.56,0,0.56-0.14,0.56-0.56v-14.31H135.63z"/>
	<path id="XMLID_7_" class="st0" d="M152.05,320.28c-0.56,0.56-1.12,1.4-3.09,1.4c-2.67,0-3.51-1.96-3.51-6.59   c0-4.49,0.56-6.88,3.65-6.88c1.68,0,2.39,0.56,2.81,0.84v11.23H152.05z M157.66,324.35l0.42-0.42c0-0.84-0.7-1.4-0.7-5.33v-22.45   c0-0.7-0.14-0.84-0.42-0.84l-0.56,0.14l-3.51,0.7c-0.42,0.14-0.84,0.14-0.84,0.7v8.42c-0.7-0.42-1.54-1.26-3.79-1.26   c-5.05,0-7.86,3.93-7.86,11.65c0,6.17,2.39,9.96,7.02,9.96c2.95,0,4.77-1.82,5.47-2.53c0.14,0.98,0.84,2.53,1.12,2.53l0.56-0.14   L157.66,324.35z"/>
	<path id="XMLID_8_" class="st0" d="M197.23,310.74c-0.42,2.25-0.84,5.61-0.98,7.72h-0.14c-0.28-2.39-0.7-5.61-1.12-7.72   l-2.95-12.49c-0.14-0.84-0.28-1.26-0.84-1.26h-2.81c-0.98,0-0.98,0.42-1.26,1.26l-2.95,12.49c-0.56,2.1-1.12,5.47-1.26,7.72h-0.14   c-0.14-2.1-0.56-5.47-0.84-7.72l-2.53-13.33c-0.14-0.84-0.42-0.84-0.56-0.84l-0.56,0.14l-3.23,0.56l-0.84,0.42l0.14,0.84l5.33,26.1   c0.14,0.56,0.28,0.7,0.84,0.7h3.51c0.7,0,0.7-0.14,0.84-0.7l3.37-13.75c0.42-1.82,0.84-4.35,0.98-7.16h0.14   c0.14,2.67,0.56,5.19,0.98,7.16l2.67,13.75c0.14,0.56,0.14,0.7,0.84,0.7h3.51c0.56,0,0.7-0.14,0.84-0.7l6.03-26.1l0.14-0.84   l-0.84-0.42l-3.09-0.56l-0.56-0.14c-0.14,0-0.42,0-0.56,0.84L197.23,310.74z"/>
	<path id="XMLID_11_" class="st0" d="M216.31,305.41c0-0.42-0.14-0.56-0.56-0.56h-7.86c-0.56,0-0.56,0.14-0.56,0.56v2.67   c0,0.42,0.14,0.56,0.56,0.56h3.09v15.86c0,0.42,0.14,0.56,0.56,0.56h4.07c0.56,0,0.56-0.14,0.56-0.56v-19.08H216.31z    M217.01,298.82c0-1.82-1.54-3.37-3.37-3.37c-1.82,0-3.37,1.4-3.37,3.37c0,1.82,1.54,3.37,3.37,3.37   C215.47,302.18,217.01,300.64,217.01,298.82z"/>
	<path id="XMLID_12_" class="st0" d="M228.52,310.74c0.56-0.56,1.82-1.96,3.09-1.96c0.98,0,1.68,0.42,1.96,0.42l0.28-0.42l1.26-3.51   l0.14-0.42c0-0.56-1.12-0.98-2.39-0.98c-2.81,0-4.35,2.25-5.05,3.23c-0.14-1.4-0.98-3.23-1.54-3.23l-0.56,0.14l-3.09,1.26   l-0.42,0.42c0,0.98,1.12,1.68,1.12,6.17v12.35c0,0.42,0.14,0.56,0.56,0.56h4.07c0.56,0,0.56-0.14,0.56-0.56L228.52,310.74   L228.52,310.74z"/>
	<path id="XMLID_13_" class="st0" d="M249.85,320.56l-0.28-0.28c-0.56,0-1.54,0.84-3.23,0.84c-1.4,0-1.4-1.12-1.4-2.53v-9.96H249   c0.56,0,0.56,0,0.7-0.56l0.56-2.39v-0.28c0-0.42-0.28-0.42-0.7-0.42h-4.63v-5.75c0-0.56,0-0.7-0.42-0.7h-0.56l-3.65,0.56   c-0.56,0.14-0.7,0.14-0.7,0.7v5.19h-2.95c-0.42,0-0.56,0.14-0.56,0.56v2.67c0,0.42,0.14,0.56,0.56,0.56h2.95v9.26   c0,3.79,0,7.86,5.33,7.86c2.81,0,5.75-0.84,5.75-1.54l-0.14-0.28L249.85,320.56z"/>
	<path id="XMLID_14_" class="st0" d="M267.1,306.67l0.14-0.56c0-0.98-3.93-1.96-6.45-1.96c-4.49,0-7.3,2.95-7.3,6.73   c0,2.39,1.26,3.79,2.39,4.63c2.67,1.82,6.73,1.82,6.73,4.21c0,1.4-1.12,2.1-2.53,2.1c-2.53,0-5.75-1.82-5.89-1.82l-0.28,0.42   l-0.84,2.39l-0.14,0.56c0,1.12,4.63,2.67,7.72,2.67c4.35,0,7.02-2.81,7.02-6.59c0-2.39-1.12-3.93-2.81-5.05   c-2.95-1.96-6.59-1.82-6.59-3.93c0-1.4,1.12-1.96,2.67-1.96c2.67,0,4.63,1.12,4.77,1.12l0.28-0.42L267.1,306.67z"/>
	<path id="XMLID_15_" class="st0" d="M285.35,320.42l-0.28-0.14c-0.7,0-1.54,1.4-3.65,1.4c-3.09,0-4.21-2.1-4.21-6.59   c0-4.77,1.26-6.88,4.07-6.88c2.1,0,3.51,1.68,3.93,1.68l0.28-0.14l1.54-2.67l0.14-0.42c0-1.26-3.65-2.53-5.75-2.53   c-6.03,0-9.54,4.35-9.54,11.23s3.37,10.38,9.12,10.38c2.39,0,5.75-1.26,5.75-2.25l-0.14-0.42L285.35,320.42z"/>
	<path id="XMLID_16_" class="st0" d="M307.37,310.6c0-3.51-0.98-6.45-5.33-6.45c-2.95,0-4.49,1.4-5.61,2.39v-10.24   c0-0.7-0.14-0.84-0.42-0.84l-0.56,0.14l-3.51,0.7c-0.42,0.14-0.84,0.14-0.84,0.7v27.5c0,0.42,0.14,0.56,0.56,0.56h4.07   c0.42,0,0.56-0.14,0.56-0.56v-14.31c0.56-0.42,1.82-1.68,3.51-1.68c2.1,0,2.24,1.82,2.24,3.51v12.63c0,0.42,0.14,0.56,0.56,0.56   h4.07c0.42,0,0.56-0.14,0.56-0.56L307.37,310.6L307.37,310.6z"/>
	<path id="XMLID_19_" class="st0" d="M328.84,324.35l0.42-0.42c0-0.84-1.12-1.4-1.12-5.33v-7.86c0-4.21-1.96-6.59-7.02-6.59   c-3.09,0-7.16,0.98-7.16,1.96l0.14,0.56l0.84,2.53l0.42,0.42c0.56,0,2.81-1.26,5.05-1.26c2.53,0,2.95,1.12,2.95,3.09v1.26   c-3.23,0-10.66,0-10.66,6.88c0,3.79,2.39,6.31,6.17,6.31c3.09,0,4.49-1.68,5.33-2.53c0.14,0.98,0.84,2.53,1.26,2.53l0.56-0.14   L328.84,324.35z M323.23,320.42c-0.42,0.42-1.54,1.54-3.09,1.54c-1.54,0-2.67-1.12-2.67-2.81c0-3.65,4.77-3.23,5.75-3.23V320.42z"/>
	<path id="XMLID_20_" class="st0" d="M341.19,308.64h3.93c0.42,0,0.7,0,0.84-0.56l0.56-2.39l0.14-0.42l-0.7-0.42h-4.63v-1.68   c0-1.96,0.14-3.37,2.24-3.37c1.54,0,2.39,0.7,2.81,0.7l0.42-0.42l0.7-2.81l0.14-0.42c0-0.84-3.09-1.4-5.05-1.4   c-4.91,0-6.59,3.23-6.59,7.72v1.68h-2.95c-0.7,0-0.84,0.14-0.84,0.84v2.1c0,0.7,0.14,0.84,0.84,0.84H336v15.57   c0,0.7,0.14,0.84,0.84,0.84h3.51c0.7,0,0.84-0.14,0.84-0.84V308.64L341.19,308.64z"/>
	<path id="XMLID_21_" class="st0" d="M361.68,320.56l-0.28-0.28c-0.56,0-1.54,0.84-3.23,0.84c-1.4,0-1.4-1.12-1.4-2.53v-9.96h4.07   c0.42,0,0.56,0,0.7-0.56l0.56-2.39v-0.28c0-0.42-0.28-0.42-0.7-0.42h-4.63v-5.75c0-0.56,0-0.7-0.42-0.7h-0.56l-3.65,0.56   c-0.56,0.14-0.7,0.14-0.7,0.7v5.19h-2.81c-0.42,0-0.56,0.14-0.56,0.56v2.67c0,0.42,0.14,0.56,0.56,0.56h2.95v9.26   c0,3.79,0,7.86,5.33,7.86c2.81,0,5.75-0.84,5.75-1.54l-0.14-0.28L361.68,320.56z"/>
	<path id="XMLID_25_" class="st0" d="M385.67,308.64v-7.3h1.68c2.24,0,4.07,0.84,4.07,3.51c0,3.23-2.1,3.79-4.49,3.79H385.67z    M385.67,320.84v-7.86h1.54c2.81,0,5.19,0.42,5.19,3.93s-2.39,3.93-5.19,3.93L385.67,320.84L385.67,320.84z M380.9,296.99   c-0.7,0-0.84,0.14-0.84,0.84v26.38c0,0.7,0.14,0.84,0.84,0.84h6.73c5.33,0,10.1-1.12,10.1-8c0-4.77-3.23-6.17-5.19-6.73   c1.54-0.84,4.21-2.1,4.21-6.17c0-6.59-5.61-7.16-9.54-7.16H380.9z"/>
	<path id="XMLID_28_" class="st0" d="M417.52,320.42l-0.42-0.28c-0.56,0-2.24,1.4-5.19,1.4c-3.79,0-4.49-2.81-4.49-5.19h11.08   c0.84,0,0.98-0.28,0.98-0.98c0-4.91-1.26-11.22-8.14-11.22c-5.47,0-8.98,4.49-8.98,11.08c0,7.58,3.79,10.66,9.12,10.66   c3.23,0,7.3-1.4,7.3-2.39l-0.14-0.42L417.52,320.42z M407.28,312.57c0.14-1.12,0.28-4.63,3.51-4.63c2.81,0,2.95,2.95,2.95,4.63   H407.28z"/>
	<path id="XMLID_29_" class="st0" d="M429.87,310.74c0.56-0.56,1.82-1.96,3.09-1.96c0.98,0,1.68,0.42,1.96,0.42l0.28-0.42l1.26-3.51   l0.14-0.42c0-0.56-1.12-0.98-2.39-0.98c-2.81,0-4.35,2.25-5.05,3.23c-0.14-1.4-0.98-3.23-1.54-3.23l-0.56,0.14l-3.09,1.26   l-0.42,0.42c0,0.98,1.12,1.68,1.12,6.17v12.35c0,0.42,0.14,0.56,0.56,0.56h4.07c0.42,0,0.56-0.14,0.56-0.56L429.87,310.74   L429.87,310.74z"/>
	<path id="XMLID_30_" class="st0" d="M447.97,320.98l-0.28-0.28c-0.28,0-0.84,0.42-1.54,0.42c-1.12,0-1.12-1.12-1.12-2.53v-22.31   c0-0.7-0.14-0.84-0.42-0.84l-0.56,0.14l-3.51,0.7c-0.42,0.14-0.84,0.14-0.84,0.7v20.91c0,3.79,0,7.86,5.05,7.86   c1.96,0,4.21-0.56,4.21-1.12l-0.14-0.28L447.97,320.98z"/>
	<path id="XMLID_33_" class="st0" d="M459.47,305.41c0-0.42-0.14-0.56-0.56-0.56h-7.86c-0.42,0-0.56,0.14-0.56,0.56v2.67   c0,0.42,0.14,0.56,0.56,0.56h3.09v15.86c0,0.42,0.14,0.56,0.56,0.56h4.07c0.42,0,0.56-0.14,0.56-0.56v-19.08H459.47z    M460.32,298.82c0-1.82-1.54-3.37-3.37-3.37s-3.37,1.4-3.37,3.37c0,1.82,1.54,3.37,3.37,3.37S460.32,300.64,460.32,298.82z"/>
	<path id="XMLID_34_" class="st0" d="M482.77,310.18c0-4.91-3.09-6.03-5.33-6.03c-3.23,0-5.05,1.82-6.31,2.81   c-0.42-1.96-0.84-2.81-1.26-2.81l-0.56,0.14l-3.09,0.98l-0.42,0.42c0,0.98,0.84,0.56,0.84,6.45v12.35c0,0.42,0.14,0.56,0.56,0.56   h4.07c0.56,0,0.56-0.14,0.56-0.56v-14.45c0.56-0.56,1.82-1.68,3.65-1.68c2.1,0,2.24,1.82,2.24,3.51v12.63   c0,0.42,0.14,0.56,0.56,0.56h4.07c0.56,0,0.56-0.14,0.56-0.56v-14.31H482.77z"/>
	<path id="XMLID_35_" class="st0" d="M115.57,253.21c0-0.7-0.14-0.84-0.84-0.84h-3.79c-0.7,0-0.84,0.14-0.84,0.84v10.52h-7.86   v-10.52c0-0.7-0.14-0.84-0.84-0.84h-3.93c-0.7,0-0.84,0.14-0.84,0.84v26.38c0,0.7,0.14,0.84,0.84,0.84h3.79   c0.7,0,0.84-0.14,0.84-0.84v-11.51h7.86v11.51c0,0.7,0.14,0.84,0.84,0.84h3.79c0.7,0,0.84-0.14,0.84-0.84v-26.38H115.57z"/>
	<path id="XMLID_38_" class="st0" d="M129.74,277.07c-2.81,0-3.37-2.95-3.37-6.73c0-3.79,0.56-6.73,3.37-6.73   c2.81,0,3.37,2.95,3.37,6.73C133.11,274.12,132.55,277.07,129.74,277.07z M138.58,270.33c0-6.59-3.37-10.8-8.84-10.8   c-5.47,0-8.84,4.21-8.84,10.8c0,6.59,3.37,10.8,8.84,10.8C135.21,281.14,138.58,276.93,138.58,270.33z"/>
	<path id="XMLID_39_" class="st0" d="M156.54,275.8l-0.28-0.14c-0.7,0-1.54,1.4-3.65,1.4c-3.09,0-4.21-2.1-4.21-6.59   c0-4.77,1.26-6.88,4.07-6.88c2.1,0,3.51,1.68,3.93,1.68l0.28-0.14l1.54-2.67l0.14-0.42c0-1.26-3.65-2.53-5.75-2.53   c-6.03,0-9.54,4.35-9.54,11.23s3.37,10.38,9.12,10.38c2.53,0,5.75-1.12,5.75-2.1l-0.14-0.42L156.54,275.8z"/>
	<path id="XMLID_40_" class="st0" d="M178.57,265.98c0-3.51-0.98-6.45-5.33-6.45c-2.95,0-4.49,1.4-5.61,2.39v-10.24   c0-0.7-0.14-0.84-0.42-0.84l-0.56,0.14l-3.51,0.7c-0.56,0.14-0.84,0.14-0.84,0.7v27.5c0,0.42,0.14,0.56,0.56,0.56h4.07   c0.56,0,0.56-0.14,0.56-0.56v-14.31c0.56-0.56,1.82-1.68,3.51-1.68c2.1,0,2.25,1.82,2.25,3.51v12.63c0,0.42,0.14,0.56,0.56,0.56   h4.07c0.56,0,0.56-0.14,0.56-0.56v-14.03H178.57z"/>
	<path id="XMLID_41_" class="st0" d="M197.09,262.05l0.14-0.56c0-0.98-3.93-1.96-6.45-1.96c-4.49,0-7.3,2.95-7.3,6.74   c0,2.39,1.12,3.79,2.39,4.63c2.67,1.82,6.74,1.82,6.74,4.21c0,1.54-1.12,2.1-2.53,2.1c-2.53,0-5.75-1.82-5.89-1.82l-0.28,0.42   l-0.84,2.39l-0.14,0.56c0,1.12,4.63,2.67,7.72,2.67c4.35,0,7.02-2.81,7.02-6.59c0-2.39-1.12-3.93-2.81-5.05   c-2.95-1.96-6.59-1.82-6.59-3.93c0-1.4,1.12-1.96,2.67-1.96c2.67,0,4.63,1.12,4.77,1.12l0.28-0.42L197.09,262.05z"/>
	<path id="XMLID_42_" class="st0" d="M215.19,275.8l-0.28-0.14c-0.7,0-1.54,1.4-3.65,1.4c-3.09,0-4.21-2.1-4.21-6.59   c0-4.77,1.26-6.88,4.07-6.88c2.1,0,3.51,1.68,3.93,1.68l0.28-0.14l1.54-2.67l0.14-0.42c0-1.26-3.65-2.53-5.75-2.53   c-6.03,0-9.54,4.35-9.54,11.23s3.37,10.38,9.12,10.38c2.53,0,5.75-1.12,5.75-2.1l-0.14-0.42L215.19,275.8z"/>
	<path id="XMLID_43_" class="st0" d="M237.22,265.98c0-3.51-0.98-6.45-5.33-6.45c-2.95,0-4.49,1.4-5.61,2.39v-10.24   c0-0.7-0.14-0.84-0.42-0.84l-0.56,0.14l-3.51,0.7c-0.56,0.14-0.84,0.14-0.84,0.7v27.5c0,0.42,0.14,0.56,0.56,0.56h4.07   c0.56,0,0.56-0.14,0.56-0.56v-14.31c0.56-0.56,1.82-1.68,3.51-1.68c2.1,0,2.25,1.82,2.25,3.51v12.63c0,0.42,0.14,0.56,0.56,0.56   h4.07c0.56,0,0.56-0.14,0.56-0.56L237.22,265.98L237.22,265.98z"/>
	<path id="XMLID_44_" class="st0" d="M259.67,280.01l0.42-0.42c0-0.98-0.84-0.56-0.84-6.45v-12.77c0-0.7-0.14-0.84-0.28-0.84   l-0.7,0.14l-3.51,0.7c-0.56,0.14-0.84,0.14-0.84,0.7v14.45c-0.56,0.42-1.82,1.26-3.65,1.26c-2.1,0-2.25-1.82-2.25-3.51v-13.05   c0-0.7-0.14-0.84-0.28-0.84l-0.7,0.14l-3.51,0.7c-0.42,0.14-0.84,0.14-0.84,0.7v14.17c0,4.91,3.09,6.03,5.33,6.03   c3.23,0,5.19-1.4,6.31-2.39c0.42,1.68,0.84,2.39,1.26,2.39l0.56-0.14L259.67,280.01z"/>
	<path id="XMLID_45_" class="st0" d="M273.98,276.37l-0.28-0.28c-0.28,0-0.84,0.42-1.54,0.42c-1.12,0-1.12-1.12-1.12-2.53v-22.31   c0-0.7-0.14-0.84-0.42-0.84l-0.56,0.14l-3.51,0.7c-0.56,0.14-0.84,0.14-0.84,0.7v20.91c0,3.79,0,7.86,5.05,7.86   c1.96,0,4.07-0.56,4.07-1.12l-0.14-0.28L273.98,276.37z"/>
	<path id="XMLID_48_" class="st0" d="M293.06,275.8l-0.42-0.28c-0.56,0-2.24,1.4-5.19,1.4c-3.79,0-4.49-2.81-4.49-5.19h11.08   c0.84,0,0.98-0.28,0.98-0.98c0-4.91-1.26-11.23-8.14-11.23c-5.47,0-8.98,4.49-8.98,11.08c0,7.58,3.79,10.66,9.12,10.66   c3.23,0,7.3-1.4,7.3-2.39l-0.14-0.42L293.06,275.8z M282.96,267.95c0.14-1.12,0.28-4.63,3.51-4.63c2.81,0,2.95,2.95,2.95,4.63   H282.96z"/>
	<path id="XMLID_49_" class="st0" d="M319.86,264.02h3.93c0.42,0,0.7,0,0.84-0.56l0.56-2.39l0.14-0.42l-0.7-0.42H320v-1.68   c0-1.96,0.14-3.37,2.24-3.37c1.54,0,2.39,0.7,2.81,0.7l0.42-0.42l0.7-2.81l0.14-0.42c0-0.84-3.09-1.54-5.05-1.54   c-4.91,0-6.59,3.23-6.59,7.72v1.68h-2.95c-0.7,0-0.84,0.14-0.84,0.84v2.1c0,0.7,0.14,0.84,0.84,0.84h2.95v15.57   c0,0.7,0.14,0.84,0.84,0.84h3.51c0.7,0,0.84-0.14,0.84-0.84V264.02L319.86,264.02z"/>
	<path id="XMLID_53_" class="st0" d="M345.68,280.01l0.42-0.42c0-0.98-0.84-0.56-0.84-6.45v-12.77c0-0.7-0.14-0.84-0.28-0.84   l-0.7,0.14l-3.51,0.7c-0.56,0.14-0.84,0.14-0.84,0.7v14.45c-0.56,0.42-1.82,1.26-3.65,1.26c-2.1,0-2.24-1.82-2.24-3.51v-13.05   c0-0.7-0.14-0.84-0.28-0.84l-0.7,0.14l-3.51,0.7c-0.42,0.14-0.84,0.14-0.84,0.7v14.17c0,4.91,3.09,6.03,5.33,6.03   c3.23,0,5.19-1.4,6.31-2.39c0.42,1.68,0.84,2.39,1.26,2.39l0.56-0.14L345.68,280.01z M336.56,253.78c0-1.54-1.26-2.81-2.81-2.81   c-1.54,0-2.81,1.26-2.81,2.81s1.26,2.81,2.81,2.81C335.3,256.58,336.56,255.32,336.56,253.78z M343.72,253.78   c0-1.54-1.26-2.81-2.81-2.81c-1.54,0-2.81,1.26-2.81,2.81s1.26,2.81,2.81,2.81C342.45,256.58,343.72,255.32,343.72,253.78z"/>
	<path id="XMLID_54_" class="st0" d="M357.19,266.12c0.56-0.56,1.82-1.96,3.09-1.96c0.98,0,1.68,0.42,1.96,0.42l0.28-0.42l1.26-3.51   l0.14-0.42c0-0.56-1.26-0.98-2.39-0.98c-2.81,0-4.35,2.25-5.05,3.23c-0.14-1.4-0.98-3.23-1.54-3.23l-0.56,0.14l-3.09,1.26   l-0.42,0.42c0,0.98,1.12,1.68,1.12,6.17v12.35c0,0.42,0.14,0.56,0.56,0.56h4.07c0.42,0,0.56-0.14,0.56-0.56L357.19,266.12   L357.19,266.12z"/>
	<path id="XMLID_55_" class="st0" d="M388.9,257.28h5.05c0.28,0,0.84,0,0.98-0.7l0.84-3.23l0.14-0.56c0-0.42-0.14-0.42-0.98-0.42   h-16.84c-0.56,0-0.7,0.14-0.7,0.7v3.51c0,0.56,0.14,0.7,0.7,0.7h5.33v22.31c0,0.7,0.14,0.84,0.84,0.84h3.79   c0.7,0,0.84-0.14,0.84-0.84L388.9,257.28L388.9,257.28z"/>
	<path id="XMLID_58_" class="st0" d="M409.52,275.8l-0.42-0.28c-0.56,0-2.24,1.4-5.19,1.4c-3.79,0-4.49-2.81-4.49-5.19h11.08   c0.84,0,0.98-0.28,0.98-0.98c0-4.91-1.26-11.23-8.14-11.23c-5.47,0-8.98,4.49-8.98,11.08c0,7.58,3.79,10.66,9.12,10.66   c3.23,0,7.3-1.4,7.3-2.39l-0.14-0.42L409.52,275.8z M399.42,267.95c0.14-1.12,0.28-4.63,3.51-4.63c2.81,0,2.95,2.95,2.95,4.63   H399.42z"/>
	<path id="XMLID_59_" class="st0" d="M429.17,275.8l-0.28-0.14c-0.7,0-1.54,1.4-3.65,1.4c-3.09,0-4.21-2.1-4.21-6.59   c0-4.77,1.26-6.88,4.07-6.88c2.1,0,3.51,1.68,3.93,1.68l0.28-0.14l1.54-2.67l0.14-0.42c0-1.26-3.65-2.53-5.75-2.53   c-6.03,0-9.54,4.35-9.54,11.23s3.37,10.38,9.12,10.38c2.39,0,5.75-1.12,5.75-2.1l-0.14-0.42L429.17,275.8z"/>
	<path id="XMLID_60_" class="st0" d="M451.19,265.98c0-3.51-0.98-6.45-5.33-6.45c-2.95,0-4.49,1.4-5.61,2.39v-10.24   c0-0.7-0.14-0.84-0.42-0.84l-0.56,0.14l-3.51,0.7c-0.42,0.14-0.84,0.14-0.84,0.7v27.5c0,0.42,0.14,0.56,0.56,0.56h4.07   c0.42,0,0.56-0.14,0.56-0.56v-14.31c0.56-0.56,1.82-1.68,3.51-1.68c2.1,0,2.24,1.82,2.24,3.51v12.63c0,0.42,0.14,0.56,0.56,0.56   h4.07c0.56,0,0.56-0.14,0.56-0.56L451.19,265.98L451.19,265.98z"/>
	<path id="XMLID_61_" class="st0" d="M474.07,265.42c0-4.91-3.09-6.03-5.33-6.03c-3.23,0-5.05,1.82-6.31,2.81   c-0.42-1.96-0.84-2.81-1.26-2.81l-0.56,0.14l-3.09,0.98l-0.42,0.42c0,0.98,0.84,0.56,0.84,6.45v12.35c0,0.42,0.14,0.56,0.56,0.56   h4.07c0.42,0,0.56-0.14,0.56-0.56v-14.45c0.56-0.42,1.82-1.68,3.65-1.68c2.1,0,2.24,1.82,2.24,3.51v12.63   c0,0.42,0.14,0.56,0.56,0.56h4.07c0.56,0,0.56-0.14,0.56-0.56v-14.31H474.07z"/>
	<path id="XMLID_64_" class="st0" d="M487.4,260.79c0-0.42-0.14-0.56-0.56-0.56h-7.86c-0.42,0-0.56,0.14-0.56,0.56v2.67   c0,0.42,0.14,0.56,0.56,0.56h3.09v15.86c0,0.42,0.14,0.56,0.56,0.56h4.07c0.42,0,0.56-0.14,0.56-0.56v-19.08H487.4z M488.1,254.06   c0-1.82-1.54-3.37-3.37-3.37c-1.96,0-3.37,1.54-3.37,3.37c0,1.82,1.54,3.37,3.37,3.37C486.55,257.56,488.1,256.02,488.1,254.06z"/>
	<path id="XMLID_65_" class="st0" d="M504.23,269.07l6.59-6.45l0.42-0.56l-0.14-0.42l-2.1-1.68l-0.7-0.42l-0.56,0.42l-7.86,8v-16.28   c0-0.7-0.14-0.84-0.28-0.84l-0.7,0.14l-3.51,0.7c-0.42,0.14-0.84,0.14-0.84,0.7v27.5c0,0.42,0.14,0.56,0.56,0.56h4.07   c0.42,0,0.56-0.14,0.56-0.56v-8.98h0.14l7.44,9.82l0.42,0.42l0.56-0.14l3.51-1.96l0.14-0.42l-0.42-0.56L504.23,269.07z"/>
	<path id="XMLID_66_" class="st1" d="M113.6,375.57v-0.56c0-0.14,0-0.42-0.56-0.42h-2.95c-0.42,0-0.56,0-0.56,0.42l-3.09,14.87   c-0.56,2.39-1.4,4.63-4.35,4.63c-1.68,0-2.95-0.7-2.95-2.53c0-0.7,0.14-1.54,0.28-2.24l3.09-14.45v-0.56c0-0.14,0-0.42-0.56-0.42   h-3.09c-0.42,0-0.56,0-0.56,0.42l-3.09,14.73c-0.14,0.98-0.28,1.82-0.28,2.81c0,3.79,2.67,5.47,6.74,5.47   c7.02,0,8.28-4.63,8.98-8.42L113.6,375.57z"/>
	<path id="XMLID_67_" class="st1" d="M128.48,386.65c0.14-0.84,0.28-1.68,0.28-2.67c0-1.82-1.26-3.51-3.37-3.51   c-2.81,0-4.63,2.39-5.47,3.37c0-1.82-0.28-3.37-0.7-3.37l-0.28,0.14l-2.67,0.98l-0.42,0.42c0,0.56,0.28,1.12,0.28,2.1   c0,1.12-0.14,1.96-0.42,2.81l-2.25,10.1v0.42l0.42,0.28h3.09l0.42-0.42l1.4-6.73c0.56-2.39,1.68-6.59,4.77-6.59   c0.7,0,0.98,0.56,0.98,1.26c0,0.7-0.14,1.4-0.28,2.1l-2.25,9.54v0.42l0.42,0.28h3.09l0.42-0.42L128.48,386.65z"/>
	<path id="XMLID_70_" class="st1" d="M139.14,381.88v-0.42l-0.42-0.28h-6.17l-0.56,0.42l-0.42,1.82v0.42l0.42,0.28h2.53l-2.67,12.91   v0.42l0.42,0.28h3.09l0.42-0.42L139.14,381.88z M140.82,376.13c0-1.68-1.4-2.81-2.81-2.81s-2.81,1.12-2.81,2.81   c0,1.54,1.26,2.81,2.81,2.81S140.82,377.67,140.82,376.13z"/>
	<path id="XMLID_71_" class="st1" d="M156.26,381.88l0.28-0.42l-0.56-0.28l-2.53-0.28l-0.56-0.14l-0.42,0.28l-3.93,8.14   c-0.84,1.68-1.54,3.51-1.96,4.49l0,0c0-0.28,0-2.95-0.14-4.49l-0.56-7.86c0-0.56,0-0.7-0.28-0.7l-0.7,0.14l-2.53,0.28l-0.56,0.28   v0.42l1.96,15.71c0,0.42,0.28,0.42,0.42,0.42H147l0.42-0.28L156.26,381.88z"/>
	<path id="XMLID_74_" class="st1" d="M167.62,393.81l-0.28-0.28c-0.56,0-2.25,1.4-4.21,1.4c-3.09,0-2.81-2.53-2.81-3.65   c1.96,0,10.38,0,10.38-6.31c0-2.67-1.82-4.49-4.91-4.49c-5.19,0-9.4,4.77-9.4,11.51c0,3.79,1.82,6.31,5.75,6.31   c3.37,0,6.45-1.68,6.45-2.1l-0.14-0.28L167.62,393.81z M165.1,383.56c0.98,0,1.54,0.84,1.54,1.68c0,3.09-4.49,3.09-5.89,3.09   C161.03,387.07,162.01,383.56,165.1,383.56z"/>
	<path id="XMLID_75_" class="st1" d="M176.88,390.58c0.42-2.24,1.96-6.03,4.49-6.03c0.56,0,0.84,0.28,1.12,0.28l0.14-0.14l1.4-3.37   v-0.28c0-0.28-0.7-0.42-1.12-0.42c-2.53,0-4.21,2.39-5.19,3.37c0-1.82-0.28-3.37-0.7-3.37l-0.28,0.14l-2.67,0.98l-0.42,0.42   c0,0.56,0.28,1.12,0.28,2.1c0,1.12-0.28,1.96-0.42,2.81l-2.25,10.1v0.42l0.42,0.28h3.09l0.42-0.42L176.88,390.58z"/>
	<path id="XMLID_76_" class="st1" d="M194.98,382.3v-0.28c0-0.84-2.67-1.54-4.35-1.54c-3.79,0-6.31,2.39-6.31,6.03   c0,2.39,1.12,2.95,2.81,3.93c1.68,0.98,3.23,1.12,3.23,2.53c0,1.4-0.98,2.24-2.95,2.24c-2.1,0-3.79-1.26-4.21-1.26l-0.28,0.28   l-0.7,2.1l-0.14,0.42c0,0.42,2.95,1.54,5.47,1.54c4.21,0,6.59-2.39,6.59-6.03c0-2.24-0.84-2.95-2.39-3.93   c-1.4-0.84-3.65-1.12-3.65-2.81c0-1.12,0.84-2.1,2.67-2.1c1.54,0,2.67,0.98,3.23,0.98l0.28-0.28L194.98,382.3z"/>
	<path id="XMLID_79_" class="st1" d="M204.81,381.88v-0.42l-0.42-0.28h-6.17l-0.56,0.42l-0.42,1.82v0.42l0.42,0.28h2.53l-2.67,12.91   v0.42l0.42,0.28h3.09l0.42-0.42L204.81,381.88z M206.49,376.13c0-1.68-1.4-2.81-2.81-2.81s-2.81,1.12-2.81,2.81   c0,1.54,1.26,2.81,2.81,2.81S206.49,377.67,206.49,376.13z"/>
	<path id="XMLID_80_" class="st1" d="M216.87,394.37l-0.28-0.28c-0.14,0-1.54,0.7-2.95,0.7c-0.84,0-1.26-0.42-1.26-1.26   c0-0.56,0.14-1.12,0.28-1.68l1.54-8h4.35l0.42-0.28l0.7-1.82l0.14-0.42l-0.42-0.28h-4.49l0.98-4.21v-0.42l-0.28-0.28h-0.42   l-3.09,0.42l-0.42,0.42l-0.84,4.21h-2.39l-0.42,0.42l-0.42,1.82v0.42l0.42,0.28h2.25l-1.82,8.7c-0.14,0.7-0.28,1.4-0.28,2.1   c0,2.53,1.54,3.37,4.07,3.37c2.1,0,5.33-0.98,5.33-1.54v-0.28L216.87,394.37z"/>
	<path id="XMLID_81_" class="st1" d="M227.96,389.6c-0.98,2.1-1.68,4.35-2.1,5.61l0,0c0-0.42-0.14-3.93-0.28-6.03l-0.56-7.72   c0-0.56,0-0.7-0.28-0.7h-0.7l-2.53,0.28l-0.56,0.28v0.42l1.82,15.29c0,0.42,0.28,0.42,0.42,0.42h1.4l-1.12,2.1   c-0.7,1.12-1.4,1.68-2.81,1.68c-1.26,0-2.1-0.7-2.53-0.7l-0.28,0.28l-1.26,2.1l-0.14,0.28c0,0.42,2.1,1.4,3.93,1.4   c4.77,0,6.74-5.47,8.56-9.12l6.59-13.75l0.28-0.56l-0.56-0.28l-2.53-0.28h-0.56l-0.28,0.28L227.96,389.6z"/>
	<path id="XMLID_84_" class="st1" d="M260.65,386.65c0-4.35-2.1-6.17-5.47-6.17c-5.47,0-9.54,5.47-9.54,11.65   c0,4.35,2.1,6.17,5.61,6.17C256.86,398.3,260.65,392.82,260.65,386.65z M252.09,394.93c-1.4,0-1.96-0.84-1.96-2.53   c0-3.23,1.4-8.56,4.49-8.56c1.4,0,2.1,0.84,2.1,2.53C256.44,389.6,255.18,394.93,252.09,394.93z"/>
	<path id="XMLID_85_" class="st1" d="M269.91,384.13h3.65l0.42-0.42l0.56-1.96l0.14-0.42l-0.42-0.28h-3.79l0.28-1.4   c0.28-1.4,0.56-2.67,2.24-2.67c0.98,0,1.68,0.42,1.96,0.42l0.28-0.28l0.84-2.39l0.14-0.28c0-0.56-1.96-0.98-3.37-0.98   c-4.63,0-5.47,2.67-5.89,5.33l-0.42,2.1h-2.53l-0.42,0.42l-0.42,1.82l-0.14,0.56l0.42,0.28h2.39l-2.67,13.33   c-0.42,2.1-0.84,3.65-3.09,3.65c-0.7,0-1.26-0.14-1.4-0.14l-0.28,0.28l-0.7,2.39v0.42c0,0.42,1.4,0.56,2.95,0.56   c4.49,0,5.75-3.37,6.45-6.59L269.91,384.13z"/>
	<path id="XMLID_88_" class="st1" d="M297.97,375.15c-0.14-0.56-0.28-0.56-0.56-0.56h-3.23l-0.56,0.28l-10.94,22.03l-0.14,0.42   l0.42,0.42h3.51c0.42,0,0.42-0.14,0.7-0.42l2.53-5.61h5.61l0.28,5.75l0.42,0.42h3.51l0.56-0.42v-0.28L297.97,375.15z    M295.17,388.62h-4.49l2.53-5.89c0.56-1.4,1.26-2.53,1.4-3.51l0,0c0,1.26,0.14,2.39,0.14,3.51L295.17,388.62z"/>
	<path id="XMLID_91_" class="st1" d="M308.78,388.9c0.56-2.39,1.96-5.05,4.07-5.05c0.98,0,1.54,0.84,1.54,2.39   c0,3.51-1.26,8.98-4.63,8.98c-1.12,0-1.82-0.56-2.1-0.7L308.78,388.9z M306.95,397.46c0.56,0.28,1.26,0.84,2.95,0.84   c5.75,0,8.42-7.3,8.42-12.77c0-3.37-1.26-5.05-3.65-5.05c-2.95,0-4.49,2.1-5.33,3.09c0-1.68-0.28-3.09-0.7-3.09l-0.42,0.14   l-2.67,0.98l-0.42,0.42c0,0.42,0.28,1.26,0.28,1.96c0,0.42,0,0.98-0.14,1.68l-3.79,18.1l-0.14,0.7l0.14,0.28l0.56-0.14l2.95-0.56   c0.56-0.14,0.56-0.28,0.56-0.56L306.95,397.46z"/>
	<path id="XMLID_94_" class="st1" d="M326.18,388.9c0.56-2.39,1.96-5.05,4.07-5.05c0.98,0,1.54,0.84,1.54,2.39   c0,3.51-1.26,8.98-4.63,8.98c-1.12,0-1.82-0.56-2.1-0.7L326.18,388.9z M324.35,397.46c0.56,0.28,1.26,0.84,2.95,0.84   c5.75,0,8.42-7.3,8.42-12.77c0-3.37-1.26-5.05-3.65-5.05c-2.95,0-4.49,2.1-5.33,3.09c0-1.68-0.28-3.09-0.7-3.09l-0.42,0.14   l-2.67,0.98l-0.42,0.42c0,0.42,0.28,1.26,0.28,1.96c0,0.42,0,0.98-0.14,1.68l-3.79,18.1l-0.14,0.7l0.14,0.28l0.56-0.14l2.95-0.56   c0.56-0.14,0.56-0.28,0.56-0.56L324.35,397.46z"/>
	<path id="XMLID_95_" class="st1" d="M344.42,394.65l-0.28-0.28c-0.14,0-0.7,0.28-1.26,0.28s-0.7-0.14-0.7-0.7   c0-0.42,0.28-1.26,0.42-2.1l3.79-17.54l0.14-0.7l-0.14-0.28l-0.42,0.14l-2.95,0.56c-0.56,0.14-0.56,0.28-0.56,0.56l-3.65,17.26   c-0.28,1.12-0.42,2.39-0.42,3.51c0,2.25,1.26,2.81,3.23,2.81c1.26,0,3.37-0.42,3.37-0.98v-0.28L344.42,394.65z"/>
	<path id="XMLID_98_" class="st1" d="M355.36,381.88v-0.42l-0.42-0.28h-6.17l-0.56,0.42l-0.42,1.82v0.42l0.42,0.28h2.53l-2.67,12.91   v0.42l0.42,0.28h3.09l0.42-0.42L355.36,381.88z M357.05,376.13c0-1.68-1.4-2.81-2.81-2.81c-1.4,0-2.67,1.12-2.67,2.81   c0,1.54,1.26,2.81,2.67,2.81C355.78,378.93,357.05,377.67,357.05,376.13z"/>
	<path id="XMLID_101_" class="st1" d="M368.13,393.81l-0.28-0.28c-0.56,0-2.24,1.4-4.21,1.4c-3.09,0-2.81-2.53-2.81-3.65   c1.96,0,10.38,0,10.38-6.31c0-2.67-1.82-4.49-4.91-4.49c-5.19,0-9.4,4.77-9.4,11.51c0,3.79,1.82,6.31,5.75,6.31   c3.37,0,6.45-1.68,6.45-2.1l-0.14-0.28L368.13,393.81z M365.6,383.56c0.98,0,1.54,0.84,1.54,1.68c0,3.09-4.49,3.09-5.89,3.09   C361.54,387.07,362.38,383.56,365.6,383.56z"/>
	<path id="XMLID_104_" class="st1" d="M382.02,389.88c-0.56,2.39-1.96,5.05-4.07,5.05c-0.98,0-1.54-0.84-1.54-2.39   c0-3.51,1.26-8.84,4.63-8.84c1.12,0,1.82,0.42,2.1,0.56L382.02,389.88z M385.11,397.17l0.42-0.42c0-0.42-0.28-1.26-0.28-1.96   c0-0.42,0-0.98,0.14-1.68l3.93-18.66l0.14-0.7l-0.14-0.42l-0.42,0.14l-2.95,0.56c-0.56,0.14-0.56,0.28-0.56,0.56l-1.4,6.73   c-0.56-0.28-1.26-0.84-2.95-0.84c-5.75,0-8.42,7.3-8.42,12.77c0,3.37,1.26,5.05,3.65,5.05c2.95,0,4.49-2.1,5.33-3.09   c0,1.68,0.28,3.09,0.7,3.09l0.42-0.14L385.11,397.17z"/>
	<path id="XMLID_105_" class="st1" d="M415.7,376.41l0.28-0.42c0-0.7-3.51-1.82-5.75-1.82c-5.05,0-8.56,2.53-8.56,7.44   c0,3.51,2.39,4.77,4.35,6.03c1.68,0.98,3.09,1.82,3.09,3.79c0,2.53-1.82,3.37-3.79,3.37c-2.53,0-4.63-1.4-4.91-1.4l-0.42,0.28   l-1.26,2.53l-0.28,0.42c0,0.56,3.65,1.82,6.17,1.82c5.61,0,8.98-3.37,8.98-7.86c0-1.96-0.7-3.23-1.96-4.21   c-2.67-2.24-5.75-2.81-5.75-5.33c0-2.1,1.54-3.09,3.65-3.09c2.24,0,4.07,1.4,4.49,1.4l0.42-0.28L415.7,376.41z"/>
	<path id="XMLID_106_" class="st1" d="M425.52,394.09l-0.28-0.14c-0.42,0-1.26,0.84-2.81,0.84c-1.68,0-2.53-0.84-2.53-2.67   c0-4.35,1.82-8.14,4.77-8.14c2.1,0,2.67,0.84,2.95,0.84l0.28-0.14l1.26-2.1l0.14-0.42c0-0.28-1.82-1.54-4.49-1.54   c-5.05,0-9.26,4.21-9.26,11.22c0,4.35,2.53,6.59,6.17,6.59c1.96,0,4.49-0.98,4.49-1.54l-0.14-0.28L425.52,394.09z"/>
	<path id="XMLID_109_" class="st1" d="M437.44,381.88v-0.42l-0.42-0.28h-6.17l-0.56,0.42l-0.42,1.82l0.14,0.28l0.42,0.28h2.53   l-2.67,12.91v0.42l0.42,0.28h3.09l0.42-0.42L437.44,381.88z M439.27,376.13c0-1.68-1.4-2.81-2.81-2.81s-2.81,1.12-2.81,2.81   c0,1.54,1.26,2.81,2.81,2.81S439.27,377.67,439.27,376.13z"/>
	<path id="XMLID_112_" class="st1" d="M450.21,393.81l-0.28-0.28c-0.56,0-2.25,1.4-4.21,1.4c-3.09,0-2.81-2.53-2.81-3.65   c1.96,0,10.38,0,10.38-6.31c0-2.67-1.82-4.49-4.91-4.49c-5.19,0-9.4,4.77-9.4,11.51c0,3.79,1.82,6.31,5.75,6.31   c3.37,0,6.45-1.68,6.45-2.1l-0.14-0.28L450.21,393.81z M447.69,383.56c0.98,0,1.54,0.84,1.54,1.68c0,3.09-4.49,3.09-5.89,3.09   C443.62,387.07,444.6,383.56,447.69,383.56z"/>
	<path id="XMLID_113_" class="st1" d="M469.15,386.65c0.14-0.84,0.28-1.68,0.28-2.67c0-1.82-1.26-3.51-3.37-3.51   c-2.67,0-4.63,2.39-5.47,3.37c0-1.82-0.28-3.37-0.7-3.37l-0.28,0.14l-2.67,0.98l-0.42,0.42c0,0.56,0.28,1.12,0.28,2.1   c0,1.12-0.14,1.96-0.42,2.81l-2.25,10.1v0.42l0.42,0.28h3.09l0.42-0.42l1.4-6.73c0.56-2.39,1.68-6.59,4.77-6.59   c0.7,0,0.98,0.56,0.98,1.26c0,0.7-0.14,1.4-0.28,2.1l-2.25,9.54v0.42l0.42,0.28h3.09l0.42-0.42L469.15,386.65z"/>
	<path id="XMLID_114_" class="st1" d="M480.94,394.09l-0.28-0.14c-0.42,0-1.26,0.84-2.81,0.84c-1.68,0-2.53-0.84-2.53-2.67   c0-4.35,1.82-8.14,4.77-8.14c2.1,0,2.67,0.84,2.95,0.84l0.28-0.14l1.26-2.1l0.14-0.42c0-0.28-1.82-1.54-4.49-1.54   c-5.05,0-9.26,4.21-9.26,11.22c0,4.35,2.53,6.59,6.17,6.59c1.96,0,4.49-0.98,4.49-1.54l-0.14-0.28L480.94,394.09z"/>
	<path id="XMLID_117_" class="st1" d="M496.24,393.81l-0.28-0.28c-0.56,0-2.24,1.4-4.21,1.4c-3.09,0-2.81-2.53-2.81-3.65   c1.96,0,10.38,0,10.38-6.31c0-2.67-1.82-4.49-4.91-4.49c-5.19,0-9.4,4.77-9.4,11.51c0,3.79,1.82,6.31,5.75,6.31   c3.37,0,6.45-1.68,6.45-2.1l-0.14-0.28L496.24,393.81z M493.71,383.56c0.98,0,1.54,0.84,1.54,1.68c0,3.09-4.49,3.09-5.89,3.09   C489.64,387.07,490.62,383.56,493.71,383.56z"/>
	<path id="XMLID_118_" class="st1" d="M511.81,382.3v-0.28c0-0.84-2.67-1.54-4.35-1.54c-3.79,0-6.31,2.39-6.31,6.03   c0,2.39,1.12,2.95,2.81,3.93c1.68,0.98,3.23,1.12,3.23,2.53c0,1.4-0.98,2.24-2.95,2.24c-2.1,0-3.79-1.26-4.21-1.26l-0.28,0.28   l-0.7,2.1l-0.14,0.42c0,0.42,2.95,1.54,5.47,1.54c4.21,0,6.59-2.39,6.59-6.03c0-2.24-0.84-2.95-2.39-3.93   c-1.4-0.84-3.65-1.12-3.65-2.81c0-1.12,0.84-2.1,2.67-2.1c1.54,0,2.67,0.98,3.23,0.98l0.28-0.28L511.81,382.3z"/>
	<rect id="XMLID_119_" x="266.26" y="131.42" class="st1" width="24.27" height="48.41"/>
	<rect id="XMLID_120_" x="290.54" y="179.83" class="st2" width="24.27" height="24.27"/>
	<path id="XMLID_121_" class="st1" d="M96.77,107.15h24.27v24.27h24.13v24.27H120.9v24.27h24.27v24.27H120.9   c-13.33,0-24.27-10.8-24.27-24.27v-72.82H96.77z"/>
	<path id="XMLID_122_" class="st1" d="M169.45,131.42h24.27v48.41H218v-48.41h23.99v48.41h24.27v24.27h-72.68   c-13.33,0-24.27-10.8-24.27-24.27L169.45,131.42L169.45,131.42z"/>
	<rect id="XMLID_123_" x="-0.05" y="155.56" class="st2" width="24.27" height="48.41"/>
	<rect id="XMLID_124_" x="-0.05" y="107.15" class="st2" width="24.27" height="24.27"/>
	<path id="XMLID_125_" class="st2" d="M24.08,131.42h24.27c13.33,0,24.27,10.8,24.27,24.27v48.41H48.36V155.7H24.22L24.08,131.42z"/>
</g>
</svg>