<svg xmlns:xlink="http://www.w3.org/1999/xlink" xmlns="http://www.w3.org/2000/svg" width="272.79" height="130.54" viewBox="0 0 272.79 130.54"><g id="bdb5c8b7-eba6-4670-bacc-b01606860bef" data-name="Ebene 2" fill="#FFFFFF"><g id="a030382e-d7b4-4923-b271-2b4137a4d875" data-name="Ebene 1" fill="#FFFFFF"><g id="a4b93a68-4222-450f-a07d-164aa9754356" data-name="Ebene 1" fill="#FFFFFF"><g id="bfbca4c0-8eaa-4af0-ad57-d880231ba282" data-name="Ebene 1" fill="#FFFFFF"><rect x="42.66" y="63.73" width="24" height="11" style="" fill="#E0B43B"></rect><polygon points="105.66 83.48 105.65 33.15 54.16 3.48 24.66 20.42 24.66 16.97 54.16 0 108.57 31.42 108.61 81.73 105.66 83.48" style="" fill="#E0B43B"></polygon><polygon points="113.53 54 113.41 28.28 91.23 16.1 94.23 14.27 116.41 26.5 116.66 52.21 113.53 54" style="" fill="#E0B43B"></polygon><polygon points="21.67 106.6 0 94.18 0 68.69 2.97 66.98 3 92.44 24.85 104.92 21.67 106.6" style="" fill="#E0B43B"></polygon><polygon points="41.66 108.95 7.74 89.51 7.86 35.98 54.26 9.22 100.64 36.23 100.67 86.2 97.67 87.92 97.67 37.96 54.32 12.81 10.98 37.77 10.74 87.79 41.66 105.49 41.66 108.95" style="" fill="#E0B43B"></polygon><g fill="#FFFFFF"><path d="M50.73,129.68V96.07H57v33.61Z" style="" fill="#FFFFFF"></path><path d="M86,96h6.34v33.65H88.43v.05L70.77,107v22.65H64.43V96.07h5.14L86,116.91Z" style="" fill="#FFFFFF"></path><path d="M119.74,104.19c-1.15-1.92-4.32-3.75-8-3.75-4.7,0-7,2-7,4.47,0,2.92,3.45,3.74,7.49,4.22,7,.86,13.53,2.69,13.53,10.71,0,7.48-6.62,10.7-14.11,10.7-6.86,0-12.15-2.11-14.64-8.26l5.28-2.73c1.48,3.7,5.37,5.33,9.45,5.33s7.73-1.4,7.73-5c0-3.17-3.31-4.47-7.77-5-6.87-.81-13.2-2.64-13.2-10.17,0-6.92,6.81-9.75,13-9.8,5.23,0,10.65,1.49,13.2,6.68Z" style="" fill="#FFFFFF"></path><path d="M147.19,119.79h-9.5v9.89h-6.34V96.07c5.28,0,10.56,0,15.84,0C163.61,96,163.66,119.79,147.19,119.79Zm-9.5-5.81h9.51c8.11,0,8.06-11.91,0-11.91h-9.51Z" style="" fill="#FFFFFF"></path><path d="M164.56,129.68V96.07h6.29v33.61Z" style="" fill="#FFFFFF"></path><path d="M207.4,129.68h-7.54l-9.79-11.24H184v11.24h-6.34V96c5.33,0,10.66,0,16,0,7.92,0,12.09,5.32,12.09,11.13,0,4.61-2.11,9.27-8.49,10.56l10.18,11.48v.43ZM184,102v10.75h9.65c4,0,5.76-2.69,5.76-5.38s-1.77-5.37-5.76-5.37Z" style="" fill="#FFFFFF"></path><path d="M236.47,129.68H211.32V96.07h25.15v6.15H217.61V110H235.8v5.9H217.61v7.58h18.86Z" style="" fill="#FFFFFF"></path><path d="M272.79,112.59c.15,8.49-5,17.09-16.8,17.09h-13.2V96.07H256C267.51,96.07,272.65,104.28,272.79,112.59Zm-23.71,11H256c7.63,0,10.66-5.57,10.51-11-.14-5.23-3.21-10.47-10.51-10.47h-6.91Z" style="" fill="#FFFFFF"></path></g><polygon points="56.03 90.59 51.66 88.72 51.66 68.73 54.66 68.73 54.66 86.74 59.66 88.48 56.03 90.59" style="" fill="#E0B43B"></polygon></g></g></g></g></svg>