<?xml version="1.0" standalone="no"?>
<!DOCTYPE svg PUBLIC "-//W3C//DTD SVG 20010904//EN"
 "http://www.w3.org/TR/2001/REC-SVG-20010904/DTD/svg10.dtd">
<svg version="1.0" xmlns="http://www.w3.org/2000/svg"
 width="1000.000000pt" height="734.000000pt" viewBox="0 0 1000.000000 734.000000"
 preserveAspectRatio="xMidYMid meet">

<g transform="translate(0.000000,734.000000) scale(0.100000,-0.100000)"
fill="#000000" stroke="none">
<path d="M0 5800 l0 -1540 768 2 767 3 3 1538 2 1537 -770 0 -770 0 0 -1540z"/>
<path d="M3390 5800 l0 -1540 765 0 765 0 0 1540 0 1540 -765 0 -765 0 0
-1540z"/>
<path d="M5080 5800 l0 -1540 765 0 765 0 0 1540 0 1540 -765 0 -765 0 0
-1540z"/>
<path d="M6770 5800 l0 -1540 768 2 767 3 3 1538 2 1537 -770 0 -770 0 0
-1540z"/>
<path d="M8462 5803 l3 -1538 768 -3 767 -2 0 1540 0 1540 -770 0 -770 0 2
-1537z"/>
<path d="M6770 3340 l0 -770 768 2 767 3 3 768 2 767 -770 0 -770 0 0 -770z"/>
<path d="M2588 1015 c-209 -57 -324 -283 -297 -586 18 -201 126 -360 277 -406
82 -25 211 -23 283 6 95 37 166 113 194 209 6 21 3 22 -40 22 -44 0 -46 -1
-64 -43 -66 -153 -314 -183 -444 -53 -76 76 -117 200 -117 356 0 256 114 416
306 428 77 5 150 -13 191 -47 28 -23 63 -81 63 -103 0 -15 9 -18 50 -18 l50 0
-7 33 c-13 68 -56 128 -125 171 -67 43 -222 58 -320 31z"/>
<path d="M6818 1014 c-107 -25 -208 -96 -242 -169 -54 -112 -39 -222 39 -294
58 -53 130 -85 284 -123 139 -35 186 -64 197 -123 15 -79 -54 -139 -172 -151
-103 -10 -181 47 -191 140 l-6 46 -103 0 -104 0 0 -43 c0 -103 59 -206 142
-248 92 -47 235 -60 365 -33 184 38 280 131 291 284 11 162 -67 230 -346 304
-143 39 -173 53 -190 92 -30 64 -3 135 61 165 107 48 224 2 243 -97 l6 -34 99
0 99 0 0 34 c0 77 -56 171 -125 212 -91 53 -226 68 -347 38z"/>
<path d="M8276 1014 c-123 -30 -223 -113 -276 -229 -38 -83 -50 -148 -50 -273
0 -172 40 -290 131 -383 165 -169 513 -170 677 -1 88 90 132 217 132 383 0
216 -61 354 -197 446 -103 68 -273 92 -417 57z m268 -168 c90 -53 132 -176
123 -361 -7 -145 -26 -203 -85 -265 -39 -40 -57 -50 -104 -61 -125 -27 -234
32 -279 149 -26 70 -37 247 -20 337 13 73 57 161 92 187 74 55 193 61 273 14z"/>
<path d="M0 515 l0 -495 45 0 45 0 0 453 c1 382 3 448 14 427 7 -14 93 -217
191 -453 l178 -427 42 0 43 0 49 118 c27 64 112 269 189 454 l139 336 3 -454
2 -454 45 0 45 0 0 495 0 495 -67 0 -68 0 -23 -53 c-13 -28 -98 -222 -190
-431 -162 -370 -166 -378 -180 -350 -7 16 -91 209 -185 429 l-173 400 -72 3
-72 3 0 -496z"/>
<path d="M1610 965 c-11 -26 -20 -48 -20 -50 0 -2 -79 -202 -175 -445 -96
-242 -175 -443 -175 -445 0 -3 19 -5 43 -5 l44 0 52 135 52 135 247 0 248 0
53 -135 52 -135 45 0 c29 0 44 4 43 13 0 6 -87 228 -192 492 l-193 480 -52 3
-52 3 -20 -46z m97 -102 c12 -32 58 -154 102 -271 45 -117 81 -214 81 -217 0
-3 -97 -5 -215 -5 l-215 0 18 48 c124 321 197 502 202 502 3 0 16 -26 27 -57z"/>
<path d="M3320 515 l0 -495 45 0 45 0 2 257 3 257 235 -257 235 -256 59 -1
c54 0 57 1 45 17 -8 9 -119 132 -248 273 l-234 255 229 223 229 223 -56 -3
-57 -3 -221 -213 -221 -214 0 216 0 216 -45 0 -45 0 0 -495z"/>
<path d="M4220 515 l0 -495 300 0 300 0 0 40 0 40 -260 0 -260 0 0 195 0 195
240 0 240 0 0 40 0 40 -237 2 -238 3 -3 178 -2 177 250 0 250 0 0 40 0 40
-290 0 -290 0 0 -495z"/>
<path d="M5021 928 c29 -79 117 -317 216 -588 26 -69 63 -168 83 -220 l36 -95
111 -3 c101 -2 113 -1 122 16 9 16 212 564 346 935 l14 37 -104 0 -103 0 -129
-385 c-70 -212 -130 -385 -133 -385 -3 0 -63 172 -132 383 l-126 382 -116 3
-116 3 31 -83z"/>
<path d="M6110 515 l0 -495 105 0 105 0 0 495 0 495 -105 0 -105 0 0 -495z"/>
<path d="M7530 515 l0 -495 105 0 105 0 0 495 0 495 -105 0 -105 0 0 -495z"/>
<path d="M9110 515 l0 -495 95 0 95 0 2 413 3 412 68 -140 c37 -77 125 -261
196 -410 l127 -270 152 -3 152 -3 0 496 0 495 -100 0 -100 0 -2 -387 -3 -386
-186 384 -186 384 -157 3 -156 3 0 -496z"/>
</g>
</svg>
