<svg version="1.1" id="Layer_1" xmlns="http://www.w3.org/2000/svg" xmlns:xlink="http://www.w3.org/1999/xlink" x="0px" y="0px"
	 width="100%" viewBox="0 0 200 200" enable-background="new 0 0 200 200" xml:space="preserve">
<path fill="#D0DCE6" opacity="1.000000" stroke="none" 
	d="
M127.000000,201.000000 
	C84.692825,201.000000 42.885651,201.000000 1.039238,201.000000 
	C1.039238,134.401199 1.039238,67.802368 1.039238,1.101770 
	C67.556999,1.101770 134.114197,1.101770 200.835693,1.101770 
	C200.835693,67.666336 200.835693,134.333130 200.835693,201.000000 
	C176.469315,201.000000 151.984665,201.000000 127.000000,201.000000 
M117.511917,174.088257 
	C156.289474,164.955429 180.537476,129.526794 175.144287,89.881882 
	C170.510742,55.820953 140.968918,28.191830 106.930092,26.084303 
	C57.635906,23.032236 20.011814,63.811440 26.904760,112.820457 
	C32.770836,154.528397 75.537949,183.788071 117.511917,174.088257 
z"/>
<path fill="#02022D" opacity="1.000000" stroke="none" 
	d="
M117.097977,174.166183 
	C75.537949,183.788071 32.770836,154.528397 26.904760,112.820457 
	C20.011814,63.811440 57.635906,23.032236 106.930092,26.084303 
	C140.968918,28.191830 170.510742,55.820953 175.144287,89.881882 
	C180.537476,129.526794 156.289474,164.955429 117.097977,174.166183 
M63.384987,126.417656 
	C62.173630,129.092560 60.962276,131.767471 59.474476,135.052826 
	C63.076008,135.052826 66.027214,134.877319 68.947876,135.100861 
	C72.034019,135.337067 73.183182,133.899155 73.838425,130.788208 
	C82.752167,111.773071 91.665901,92.757935 100.940117,72.973816 
	C102.045784,75.213356 102.779922,76.628487 103.451935,78.072517 
	C111.582855,95.544342 119.847984,112.956329 127.713234,130.547058 
	C129.375671,134.265152 131.357712,135.582626 135.186081,135.091385 
	C137.390305,134.808548 139.660538,135.040085 142.593628,135.040085 
	C128.641144,105.023247 115.044800,75.772606 100.990952,45.537693 
	C96.910454,54.321972 93.276978,62.084129 89.693832,69.869446 
	C81.090263,88.562927 72.510323,107.267273 63.384987,126.417656 
z"/>
<path fill="#CDD8E4" opacity="1.000000" stroke="none" 
	d="
M63.920849,125.967239 
	C72.510323,107.267273 81.090263,88.562927 89.693832,69.869446 
	C93.276978,62.084129 96.910454,54.321972 100.990952,45.537693 
	C115.044800,75.772606 128.641144,105.023247 142.593628,135.040085 
	C139.660538,135.040085 137.390305,134.808548 135.186081,135.091385 
	C131.357712,135.582626 129.375671,134.265152 127.713234,130.547058 
	C119.847984,112.956329 111.582855,95.544342 103.451935,78.072517 
	C102.779922,76.628487 102.045784,75.213356 100.940117,72.973816 
	C91.665901,92.757935 82.752167,111.773071 73.183441,130.953735 
	C69.654251,131.800293 66.780052,132.481308 63.920849,133.158783 
	C63.920849,129.815704 63.920849,127.891472 63.920849,125.967239 
z"/>
<path fill="#CDD4E9" opacity="1.000000" stroke="none" 
	d="
M63.652916,126.192444 
	C63.920849,127.891472 63.920849,129.815704 63.920849,133.158783 
	C66.780052,132.481308 69.654251,131.800293 72.875481,131.102844 
	C73.183182,133.899155 72.034019,135.337067 68.947876,135.100861 
	C66.027214,134.877319 63.076008,135.052826 59.474476,135.052826 
	C60.962276,131.767471 62.173630,129.092560 63.652916,126.192444 
z"/>
</svg>